<svg width="260" height="44" viewBox="0 0 260 44" fill="none" xmlns="http://www.w3.org/2000/svg">
<g clip-path="url(#clip0_2_40)">
<path d="M34.646 30.1242L36.6139 32.1358L35.6335 37.0203L34.646 41.9049L33.6617 37.0203L32.6765 32.1358L34.646 30.1242ZM18.6453 29.5303L20.6116 31.5419L19.6296 36.4224L18.6453 41.3069L17.6618 36.4224L16.6743 31.5419L18.6453 29.5303Z" fill="#E7E5E5"/>
<path d="M20.1206 35.1861C20.1206 33.0724 21.0227 34.4457 25.7886 34.4457C30.5561 34.4457 32.1998 33.0717 32.1998 35.1861C32.1998 37.3018 30.9277 43.0181 26.1586 43.0181C21.3912 43.0181 20.1206 37.3025 20.1206 35.1861Z" fill="#089987"/>
<path fill-rule="evenodd" clip-rule="evenodd" d="M33.8166 26.8884C32.2788 26.2051 30.7632 25.5097 28.8135 25.0891C36.0351 16.4992 34.0159 4.75149 30.817 0.0147705C36.5798 5.7593 43.6844 24.5812 33.8166 26.8884Z" fill="#0A7E71"/>
<path fill-rule="evenodd" clip-rule="evenodd" d="M43.2915 9.18519C44.1279 9.55539 44.8237 11.2243 45.1502 12.3296C46.3496 16.4132 44.7193 21.5618 41.0991 24.5752C40.7259 22.9983 40.1914 22.4749 39.3905 20.2275C42.3577 16.8714 43.2195 12.9262 43.2915 9.18519ZM18.0096 26.9758C19.5442 26.2925 21.063 25.5984 23.0103 25.1765C15.788 16.5879 17.8072 4.83883 21.0101 0.102112C15.244 5.84664 8.13869 24.6692 18.0096 26.9758Z" fill="#0A7E71"/>
<path fill-rule="evenodd" clip-rule="evenodd" d="M8.53163 9.27118C7.69911 9.64071 7.00256 11.3096 6.67683 12.4149C5.47429 16.4985 7.10693 21.6478 10.728 24.6598C11.098 23.0836 11.6333 22.5609 12.4334 20.3128C9.46457 16.9574 8.60358 13.0122 8.53163 9.27118Z" fill="#0A7E71"/>
<path d="M44.2228 29.5289C44.2228 34.4894 36.1339 38.5125 26.1555 38.5125C16.1738 38.5125 8.08572 34.4894 8.08572 29.5289C8.08572 24.5664 16.1746 13.0149 26.1555 13.0149C36.1331 13.0149 44.2228 24.5664 44.2228 29.5289Z" fill="#089987"/>
<path d="M38.8908 32.1828C38.8908 35.6773 33.192 38.5126 26.1618 38.5126C19.1331 38.5126 13.4327 35.6773 13.4327 32.1828C13.4327 28.6877 19.1323 20.5493 26.1618 20.5493C33.1944 20.5493 38.8908 28.6857 38.8908 32.1828Z" fill="#0A7E71"/>
<path d="M34.646 31.7058C34.6459 31.4982 34.6939 31.2926 34.7873 31.1008C34.8807 30.9089 35.0176 30.7346 35.1903 30.5877C35.363 30.4409 35.568 30.3243 35.7937 30.2448C36.0193 30.1653 36.2612 30.1243 36.5055 30.1242C36.7498 30.1241 36.9918 30.1649 37.2175 30.2443C37.4433 30.3237 37.6484 30.44 37.8212 30.5868C37.994 30.7335 38.1312 30.9077 38.2247 31.0995C38.3183 31.2913 38.3666 31.4968 38.3667 31.7045C38.3669 32.1237 38.1711 32.5259 37.8223 32.8225C37.4736 33.1191 37.0005 33.2859 36.5071 33.2861C36.0137 33.2862 35.5404 33.1198 35.1914 32.8235C34.8424 32.5271 34.6462 32.1251 34.646 31.7058ZM14.0186 31.7058C14.0184 31.2865 14.2142 30.8843 14.5629 30.5877C14.9116 30.2911 15.3847 30.1244 15.8781 30.1242C16.3715 30.124 16.8448 30.2904 17.1938 30.5868C17.5428 30.8831 17.739 31.2852 17.7393 31.7045C17.7395 32.1237 17.5437 32.5259 17.1949 32.8225C16.8462 33.1191 16.3731 33.2859 15.8797 33.2861C15.3863 33.2862 14.913 33.1198 14.564 32.8235C14.215 32.5271 14.0188 32.1251 14.0186 31.7058Z" fill="#25333A"/>
<path d="M35.2287 18.5639C36.111 19.5791 36.5585 20.982 36.3363 22.4769C35.9307 25.2135 33.4371 27.2069 30.7703 26.924C28.5487 26.6869 26.9097 24.9205 26.6749 22.743C29.8271 21.7634 32.7469 20.4102 35.2287 18.5639ZM16.9178 18.5639C16.0347 19.5791 15.5919 20.9806 15.8101 22.4756C16.2149 25.2135 18.7086 27.2056 21.3761 26.924C23.5978 26.6869 25.2368 24.9205 25.4708 22.743C22.3217 21.7634 19.398 20.4102 16.917 18.5639" fill="#CB2F42"/>
<path d="M36.8961 16.4254H35.2888C35.2065 16.4254 35.1464 16.4522 35.0737 16.463C34.9915 16.4724 34.9132 16.4764 34.8294 16.5046C34.6934 16.5503 34.4341 16.7156 34.412 16.7331C30.5292 19.9493 25.4439 20.6824 20.5989 18.5646C17.9946 17.4271 18.2113 16.4254 15.4219 16.4254C14.285 16.4254 13.8612 17.5481 14.5483 18.2199C20.833 24.3797 31.489 24.3797 37.7737 18.2199C38.46 17.5481 38.0354 16.4254 36.8961 16.4254Z" fill="#036A5C"/>
</g>
<path d="M66.9321 36.3739C64.7721 36.3739 62.9028 35.9065 61.3243 34.9719C59.7666 34.0165 58.562 32.6976 57.7104 31.0153C56.8589 29.3122 56.4331 27.3495 56.4331 25.1271C56.4331 22.884 56.8589 20.9213 57.7104 19.239C58.562 17.5359 59.7666 16.2066 61.3243 15.2512C62.9028 14.2958 64.7721 13.8181 66.9321 13.8181C69.4868 13.8181 71.5741 14.4412 73.1941 15.6874C74.8141 16.9336 75.8422 18.6782 76.2784 20.9213H72.6022C72.3114 19.6544 71.6883 18.6471 70.7329 17.8994C69.7775 17.1516 68.5002 16.7778 66.9009 16.7778C64.7201 16.7778 62.9963 17.5255 61.7293 19.0209C60.4624 20.4955 59.8289 22.531 59.8289 25.1271C59.8289 27.7026 60.4624 29.7276 61.7293 31.2022C62.9963 32.6769 64.7201 33.4142 66.9009 33.4142C68.5002 33.4142 69.7775 33.0611 70.7329 32.3549C71.6883 31.6488 72.3114 30.683 72.6022 29.4576H76.2784C75.8422 31.6176 74.8141 33.3103 73.1941 34.5357C71.5741 35.7612 69.4868 36.3739 66.9321 36.3739ZM79.7837 36V20.5475H82.7434L83.0238 23.476C83.5638 22.4583 84.3115 21.6586 85.2669 21.0771C86.2431 20.4748 87.4165 20.1736 88.7873 20.1736V23.6317H87.8839C86.97 23.6317 86.1496 23.7875 85.4227 24.0991C84.7165 24.3898 84.1453 24.8987 83.7092 25.6256C83.2938 26.3318 83.0861 27.3183 83.0861 28.5853V36H79.7837ZM93.488 17.619C92.8649 17.619 92.3457 17.432 91.9303 17.0582C91.5356 16.6636 91.3383 16.1755 91.3383 15.5939C91.3383 15.0124 91.5356 14.5347 91.9303 14.1608C92.3457 13.7662 92.8649 13.5689 93.488 13.5689C94.1111 13.5689 94.6199 13.7662 95.0145 14.1608C95.4299 14.5347 95.6376 15.0124 95.6376 15.5939C95.6376 16.1755 95.4299 16.6636 95.0145 17.0582C94.6199 17.432 94.1111 17.619 93.488 17.619ZM91.8368 36V20.5475H95.1392V36H91.8368ZM99.4986 42.8539V20.5475H102.458L102.801 22.9463C103.299 22.2194 103.985 21.5756 104.857 21.0148C105.729 20.454 106.851 20.1736 108.222 20.1736C109.717 20.1736 111.036 20.5267 112.178 21.2329C113.321 21.939 114.214 22.9048 114.858 24.1302C115.522 25.3556 115.855 26.7472 115.855 28.3049C115.855 29.8626 115.522 31.2542 114.858 32.4796C114.214 33.6842 113.321 34.6396 112.178 35.3458C111.036 36.0312 109.707 36.3739 108.191 36.3739C106.986 36.3739 105.916 36.135 104.982 35.6573C104.068 35.1796 103.341 34.5046 102.801 33.6323V42.8539H99.4986ZM107.63 33.5077C109.042 33.5077 110.205 33.03 111.119 32.0746C112.033 31.0984 112.49 29.8314 112.49 28.2737C112.49 27.256 112.282 26.3526 111.867 25.5633C111.451 24.7741 110.88 24.1614 110.153 23.7252C109.426 23.2683 108.585 23.0398 107.63 23.0398C106.218 23.0398 105.054 23.5279 104.141 24.5041C103.247 25.4802 102.801 26.7368 102.801 28.2737C102.801 29.8314 103.247 31.0984 104.141 32.0746C105.054 33.03 106.218 33.5077 107.63 33.5077ZM125.298 36C123.782 36 122.577 35.6365 121.684 34.9096C120.791 34.1619 120.344 32.843 120.344 30.953V23.3202H117.696V20.5475H120.344L120.749 16.622H123.647V20.5475H128.008V23.3202H123.647V30.953C123.647 31.8046 123.823 32.3965 124.176 32.7288C124.55 33.0403 125.184 33.1961 126.077 33.1961H127.853V36H125.298ZM138.246 36.3739C136.771 36.3739 135.442 36.0415 134.258 35.3769C133.095 34.6915 132.171 33.7465 131.485 32.5419C130.8 31.3165 130.457 29.8938 130.457 28.2737C130.457 26.6537 130.8 25.2414 131.485 24.0367C132.191 22.8113 133.136 21.8663 134.32 21.2017C135.504 20.5163 136.823 20.1736 138.277 20.1736C139.752 20.1736 141.07 20.5163 142.234 21.2017C143.417 21.8663 144.352 22.8113 145.037 24.0367C145.744 25.2414 146.097 26.6537 146.097 28.2737C146.097 29.8938 145.744 31.3165 145.037 32.5419C144.352 33.7465 143.417 34.6915 142.234 35.3769C141.05 36.0415 139.72 36.3739 138.246 36.3739ZM138.246 33.5388C139.035 33.5388 139.762 33.3415 140.427 32.9469C141.112 32.5523 141.662 31.9707 142.078 31.2022C142.493 30.413 142.701 29.4368 142.701 28.2737C142.701 27.1106 142.493 26.1449 142.078 25.3764C141.683 24.5871 141.143 23.9952 140.458 23.6006C139.793 23.206 139.066 23.0087 138.277 23.0087C137.488 23.0087 136.75 23.206 136.065 23.6006C135.4 23.9952 134.86 24.5871 134.445 25.3764C134.03 26.1449 133.822 27.1106 133.822 28.2737C133.822 29.4368 134.03 30.413 134.445 31.2022C134.86 31.9707 135.4 32.5523 136.065 32.9469C136.73 33.3415 137.457 33.5388 138.246 33.5388ZM156.709 36.3739C155.213 36.3739 153.895 36.0208 152.752 35.3146C151.61 34.6084 150.717 33.6427 150.073 32.4173C149.429 31.1919 149.107 29.8003 149.107 28.2426C149.107 26.6849 149.429 25.3037 150.073 24.0991C150.717 22.8737 151.61 21.9183 152.752 21.2329C153.915 20.5267 155.245 20.1736 156.74 20.1736C157.965 20.1736 159.035 20.4125 159.949 20.8902C160.883 21.3679 161.61 22.0429 162.13 22.9152V13.5689H165.432V36H162.472L162.13 33.6011C161.631 34.3281 160.946 34.9719 160.073 35.5327C159.201 36.0935 158.08 36.3739 156.709 36.3739ZM157.301 33.5077C158.713 33.5077 159.866 33.0196 160.759 32.0434C161.673 31.0672 162.13 29.8107 162.13 28.2737C162.13 26.716 161.673 25.4595 160.759 24.5041C159.866 23.5279 158.713 23.0398 157.301 23.0398C155.888 23.0398 154.725 23.5279 153.811 24.5041C152.898 25.4595 152.441 26.716 152.441 28.2737C152.441 29.2914 152.648 30.1949 153.064 30.9842C153.479 31.7734 154.05 32.3965 154.777 32.8534C155.525 33.2896 156.366 33.5077 157.301 33.5077ZM169.596 36V20.5475H172.555L172.836 23.476C173.376 22.4583 174.123 21.6586 175.079 21.0771C176.055 20.4748 177.229 20.1736 178.599 20.1736V23.6317H177.696C176.782 23.6317 175.962 23.7875 175.235 24.0991C174.529 24.3898 173.957 24.8987 173.521 25.6256C173.106 26.3318 172.898 27.3183 172.898 28.5853V36H169.596ZM186.665 36.3739C185.356 36.3739 184.276 36.1558 183.425 35.7196C182.573 35.2835 181.94 34.7123 181.524 34.0061C181.109 33.2792 180.901 32.4899 180.901 31.6384C180.901 30.143 181.483 28.9591 182.646 28.0868C183.809 27.2145 185.47 26.7783 187.63 26.7783H191.68V26.4979C191.68 25.2933 191.348 24.3898 190.684 23.7875C190.04 23.1852 189.199 22.884 188.16 22.884C187.246 22.884 186.447 23.1125 185.761 23.5694C185.097 24.0056 184.692 24.6598 184.546 25.5322H181.244C181.348 24.4106 181.721 23.4552 182.365 22.666C183.03 21.8559 183.861 21.2432 184.858 20.8279C185.875 20.3917 186.987 20.1736 188.191 20.1736C190.351 20.1736 192.023 20.7448 193.207 21.8871C194.391 23.0087 194.983 24.5456 194.983 26.4979V36H192.117L191.836 33.3519C191.4 34.2034 190.767 34.92 189.936 35.5015C189.105 36.0831 188.015 36.3739 186.665 36.3739ZM187.319 33.6946C188.212 33.6946 188.96 33.4869 189.562 33.0715C190.185 32.6353 190.663 32.0642 190.995 31.358C191.348 30.6518 191.566 29.873 191.649 29.0214H187.973C186.665 29.0214 185.73 29.2499 185.169 29.7068C184.629 30.1638 184.359 30.7349 184.359 31.4203C184.359 32.1265 184.619 32.6873 185.138 33.1026C185.678 33.4973 186.405 33.6946 187.319 33.6946ZM205.158 31.2645C204.348 31.2645 203.6 31.1711 202.915 30.9842L201.575 32.2926C201.803 32.438 202.084 32.5626 202.416 32.6665C202.748 32.7703 203.216 32.8638 203.818 32.9469C204.42 33.03 205.241 33.113 206.279 33.1961C208.335 33.383 209.82 33.8815 210.734 34.6915C211.648 35.4808 212.105 36.54 212.105 37.8693C212.105 38.7831 211.856 39.6451 211.357 40.4551C210.88 41.2858 210.122 41.9505 209.083 42.4489C208.065 42.9682 206.757 43.2278 205.158 43.2278C202.998 43.2278 201.243 42.8124 199.893 41.9816C198.563 41.1716 197.899 39.9358 197.899 38.2743C197.899 37.6304 198.065 36.9866 198.397 36.3427C198.75 35.7196 199.301 35.1277 200.048 34.5669C199.612 34.38 199.228 34.1827 198.896 33.975C198.584 33.7465 198.304 33.518 198.054 33.2896V32.5419L200.734 29.8003C199.529 28.7618 198.927 27.4014 198.927 25.7191C198.927 24.7014 199.166 23.7771 199.643 22.9463C200.142 22.0948 200.858 21.4198 201.793 20.9213C202.728 20.4228 203.849 20.1736 205.158 20.1736C206.03 20.1736 206.84 20.2982 207.588 20.5475H213.351V22.7283L210.61 22.884C211.108 23.7356 211.357 24.6806 211.357 25.7191C211.357 26.7576 211.108 27.6922 210.61 28.523C210.132 29.3537 209.426 30.0184 208.491 30.5168C207.577 31.0153 206.466 31.2645 205.158 31.2645ZM205.158 28.6787C206.113 28.6787 206.882 28.4295 207.463 27.931C208.065 27.4118 208.367 26.6849 208.367 25.7502C208.367 24.7948 208.065 24.0679 207.463 23.5694C206.882 23.071 206.113 22.8217 205.158 22.8217C204.181 22.8217 203.392 23.071 202.79 23.5694C202.208 24.0679 201.918 24.7948 201.918 25.7502C201.918 26.6849 202.208 27.4118 202.79 27.931C203.392 28.4295 204.181 28.6787 205.158 28.6787ZM201.014 37.9627C201.014 38.8558 201.409 39.5204 202.198 39.9566C202.987 40.4135 203.974 40.642 205.158 40.642C206.3 40.642 207.224 40.3928 207.93 39.8943C208.637 39.4166 208.99 38.7727 208.99 37.9627C208.99 37.3604 208.751 36.8412 208.273 36.405C207.795 35.9896 206.892 35.73 205.563 35.6261C204.566 35.5638 203.683 35.4704 202.915 35.3458C202.188 35.7404 201.689 36.1662 201.419 36.6231C201.149 37.08 201.014 37.5266 201.014 37.9627ZM222.916 36.3739C221.441 36.3739 220.112 36.0415 218.928 35.3769C217.765 34.6915 216.841 33.7465 216.156 32.5419C215.47 31.3165 215.128 29.8938 215.128 28.2737C215.128 26.6537 215.47 25.2414 216.156 24.0367C216.862 22.8113 217.807 21.8663 218.991 21.2017C220.175 20.5163 221.493 20.1736 222.947 20.1736C224.422 20.1736 225.741 20.5163 226.904 21.2017C228.088 21.8663 229.022 22.8113 229.708 24.0367C230.414 25.2414 230.767 26.6537 230.767 28.2737C230.767 29.8938 230.414 31.3165 229.708 32.5419C229.022 33.7465 228.088 34.6915 226.904 35.3769C225.72 36.0415 224.391 36.3739 222.916 36.3739ZM222.916 33.5388C223.705 33.5388 224.432 33.3415 225.097 32.9469C225.782 32.5523 226.333 31.9707 226.748 31.2022C227.163 30.413 227.371 29.4368 227.371 28.2737C227.371 27.1106 227.163 26.1449 226.748 25.3764C226.353 24.5871 225.813 23.9952 225.128 23.6006C224.463 23.206 223.736 23.0087 222.947 23.0087C222.158 23.0087 221.421 23.206 220.735 23.6006C220.071 23.9952 219.531 24.5871 219.115 25.3764C218.7 26.1449 218.492 27.1106 218.492 28.2737C218.492 29.4368 218.7 30.413 219.115 31.2022C219.531 31.9707 220.071 32.5523 220.735 32.9469C221.4 33.3415 222.127 33.5388 222.916 33.5388ZM222.075 19.2701V16.9024L228.867 13.0393V15.7809L222.075 19.2701ZM234.338 36V20.5475H237.267L237.516 23.2579C237.994 22.3025 238.689 21.5548 239.603 21.0148C240.538 20.454 241.608 20.1736 242.812 20.1736C244.681 20.1736 246.146 20.7552 247.205 21.9183C248.285 23.0813 248.825 24.8156 248.825 27.121V36H245.554V27.4637C245.554 24.4729 244.328 22.9775 241.878 22.9775C240.652 22.9775 239.635 23.4137 238.824 24.286C238.035 25.1583 237.641 26.4045 237.641 28.0245V36H234.338Z" fill="#29DF67"/>
<defs>
<clipPath id="clip0_2_40">
<rect width="50.6" height="43" fill="white"/>
</clipPath>
</defs>
</svg>
