<svg width="1051" height="909" viewBox="0 0 1051 909" fill="none" xmlns="http://www.w3.org/2000/svg">
<g clip-path="url(#clip0_20_60)">
<path d="M834.864 231.982C887.693 208.572 911.601 147.152 888.262 94.7973C864.924 42.4422 803.177 18.9774 750.347 42.3873C697.517 65.7971 673.61 127.217 696.948 179.572C720.287 231.927 782.034 255.392 834.864 231.982Z" fill="#A462D9" stroke="#AB00C4" stroke-width="0.78125"/>
<path d="M812.785 127.444L832.514 118.702L771.061 85.0916L812.785 127.444ZM773.27 144.954L811.346 128.082L769.693 85.7866L773.27 144.954ZM811.932 129.396L773.856 146.269L815.517 188.582L811.932 129.396ZM771.831 145.591L768.259 86.3335L752.102 154.334L771.831 145.591ZM772.417 146.906L752.688 155.648L814.149 189.277L772.417 146.906ZM813.371 128.759L816.951 188.036L833.1 120.017L813.371 128.759Z" fill="white" stroke="#AB00C4" stroke-width="0.78125"/>
</g>
<g clip-path="url(#clip1_20_60)">
<path d="M322.894 705.456C448.006 792.152 619.921 761.313 706.877 636.575C793.833 511.837 762.901 340.435 637.789 253.739C512.677 167.042 340.762 197.882 253.806 322.62C166.85 447.358 197.782 618.76 322.894 705.456Z" fill="#5CEC6B"/>
<path d="M603.873 452.723C610.432 419.095 588.107 395.464 552.365 378.603L569.807 331.688L541.187 321.123L523.654 367.804C516.153 364.987 508.639 361.821 500.863 359.153L518.237 312.701L489.618 302.136L472.177 349.051C465.905 346.916 414.358 327.775 414.358 327.775L402.965 358.307C402.965 358.307 424.266 365.671 423.814 365.953C435.501 370.226 436.722 378.383 435.67 384.54L387.951 513.174C386.099 516.566 381.767 521.556 373.704 518.689C373.947 519.197 352.896 510.986 352.896 510.986L334.481 543.029C334.481 543.029 385.546 562.006 392.237 564.517L374.591 611.971L403.21 622.535L421.056 574.796C428.804 577.87 436.42 580.767 443.904 583.487L426.16 630.958L454.779 641.522L472.385 594.127C516.072 610.967 558.847 605.751 578.498 566.063C590.154 542.004 578.796 507.779 560.473 492.107C580.078 489.794 597.139 478.407 603.873 452.723ZM526.065 539.507C506.079 578.452 453.423 548.425 434.039 541.37L456.904 478.234C476.345 485.33 539.76 502.493 526.065 539.507ZM546.719 446.274C529.777 481.463 484.787 455.728 468.666 449.743L489.359 392.414C505.458 398.554 556.732 409.769 546.719 446.274Z" fill="white"/>
</g>
<path d="M863.409 676.366H848.453V705.568H871.984V717.795H848.453V746.995H864.142C868.173 746.995 897.238 747.446 897.193 713.021C897.147 678.596 869.003 676.366 863.409 676.366Z" fill="#5CEC6B"/>
<path d="M860.897 608.049C803.084 608.049 756.218 654.462 756.218 711.717C756.218 768.972 803.084 815.385 860.897 815.385C918.711 815.385 965.576 768.972 965.576 711.717C965.576 654.462 918.711 608.049 860.897 608.049ZM865.01 767.708H827.101V717.796H813.737V705.569H827.1V655.654H859.636C867.333 655.654 918.315 654.071 918.315 712.618C918.315 772.133 865.011 767.708 865.011 767.708H865.01Z" fill="#5CEC6B"/>
<g clip-path="url(#clip2_20_60)">
<path d="M23.7081 508.387C24.9013 496.42 15.2889 494.932 11.4767 497.535C9.38577 498.962 8.89782 501.679 10.5637 500.248C13.5029 497.722 14.5341 499.579 12.3116 500.917C10.0891 502.255 9.69075 504.744 12.1534 503.037C14.6161 501.328 15.2908 502.441 13.3847 504.633C12.2316 505.961 13.4648 507.199 15.6091 504.523C17.3971 502.291 21.7086 502.214 20.6831 509.857C20.26 512.99 23.4527 510.942 23.7081 508.387ZM38.8443 470.883C37.7331 464.639 36.7 461.52 30.0287 460.478C23.3574 459.437 17.7973 463.6 17.7973 463.6C17.7973 463.6 18.9086 457.356 22.2442 455.274C23.5518 454.457 24.4686 458.396 25.5799 458.396C26.6911 458.396 27.8043 455.274 31.1399 455.274C32.2512 455.274 32.2512 458.396 33.3643 458.396C34.4756 458.396 37.6397 457.367 37.8112 458.396C38.0514 459.845 37.4929 461.481 38.3678 462.15C39.2427 462.819 41.328 461.886 41.9913 463.022C42.6565 464.157 40.8286 465.793 40.9887 466.537C41.1488 467.281 42.3591 467.577 41.9913 468.99C41.6234 470.403 40.7523 470.476 40.6723 471.518C40.5922 472.56 42.3591 473.447 41.9913 474.526C41.6253 475.607 40.7504 475.753 40.3539 477.129C39.9575 478.504 41.3851 478.287 40.9887 479.696C40.5922 481.106 39.1626 481.464 38.6861 482.847C38.2096 484.228 39.9556 484.526 39.0826 485.864C38.2096 487.202 36.6218 487.425 36.5418 488.242C36.4617 489.059 36.9401 489.701 36.6218 491.016C36.3035 492.329 34.4756 491.662 34.3174 492.702C34.1592 493.742 34.7157 494.263 34.7157 495.526C34.7157 496.789 33.3643 497.014 33.5244 498.277C33.6846 499.54 34.954 498.575 35.7488 500.061C36.5437 501.547 35.2742 502.885 36.1472 503.777C37.0202 504.669 38.2115 502.587 39.4028 503.331C40.5941 504.075 40.6932 505.561 41.9932 505.784C43.2931 506.007 43.6915 503.479 44.6445 503.554C45.5976 503.629 47.7419 504.819 48.8532 504.298C49.9644 503.777 49.8844 501.695 50.7593 500.803C51.6342 499.911 52.7454 500.73 53.5383 499.763C54.3313 498.796 53.262 497.667 53.4202 496.254C53.5784 494.841 55.048 494.04 54.9679 492.925C54.8878 491.81 53.6965 491.81 53.22 490.62C52.7435 489.43 54.093 488.39 53.6165 487.275C53.14 486.16 51.0776 485.789 51.1557 484.674C51.2339 483.559 52.0306 482.295 51.6323 481.031C51.2339 479.766 49.5661 478.95 49.6461 477.985C49.7262 477.02 50.5972 475.755 50.7574 475.049C50.9175 474.342 49.3297 473.6 49.4879 472.41C49.6461 471.22 50.6773 471.302 51.0738 470.228C51.4702 469.154 49.6461 468.621 50.5992 467.245C51.5522 465.87 52.0306 466.764 52.8236 466.018C53.6165 465.274 52.8217 463.638 53.6165 463.267C54.4113 462.896 55.9991 463.192 56.7939 462.673C57.5888 462.154 57.5888 461.41 58.4618 461.112C59.3347 460.814 60.4479 462.079 61.1627 462.079C61.8775 462.079 63.1469 460.816 64.1 461.112C65.053 461.41 67.1192 463.49 65.8478 464.123C64.5765 464.757 54.8859 465.203 54.8078 469.365C54.7296 473.527 60.1315 492.409 58.5418 497.165C56.9521 501.922 50.3628 512.034 42.8166 510.1C35.2704 508.166 26.2966 503.854 28.4409 497.239C30.5853 490.622 37.4929 477.086 38.8443 470.883Z" fill="#3E721D"/>
<path d="M40.0356 469.252C40.0356 476.349 35.4953 483.782 28.9174 482.751C18.7713 481.163 18.2319 478.135 16.6861 479.992C11.126 486.67 7.8342 479.127 6.57047 477.876C6.25215 477.563 0.0078125 475.841 0.0078125 472.548C0.0078125 470.412 3.34346 468.234 5.56786 470.351C8.85014 470.275 21.1349 459.369 28.9174 459.369C36.7 459.367 40.0356 464.86 40.0356 469.252Z" fill="#77B255"/>
<path d="M27.8042 467.763C27.8128 468.041 27.7616 468.319 27.6535 468.579C27.5455 468.838 27.3829 469.075 27.1753 469.275C26.9677 469.475 26.7193 469.634 26.445 469.742C26.1706 469.851 25.8757 469.907 25.5779 469.907C25.28 469.906 24.9853 469.85 24.711 469.742C24.4367 469.633 24.1885 469.474 23.9811 469.274C23.7737 469.074 23.6113 468.837 23.5035 468.577C23.3957 468.317 23.3447 468.04 23.3535 467.761C23.3707 467.219 23.6128 466.705 24.0285 466.327C24.4441 465.95 25.0006 465.739 25.5798 465.739C26.159 465.739 26.7153 465.951 27.1306 466.329C27.5459 466.706 27.7875 467.221 27.8042 467.763Z" fill="#292F33"/>
<path d="M5.56783 473.488C5.56783 474.349 4.82064 474.009 3.9 474.009C2.97936 474.009 2.23218 474.349 2.23218 473.488C2.23218 473.074 2.40789 472.677 2.72067 472.384C3.03345 472.091 3.45767 471.927 3.9 471.927C4.34234 471.927 4.76656 472.091 5.07933 472.384C5.39211 472.677 5.56783 473.074 5.56783 473.488Z" fill="#3E721D"/>
<path d="M21.133 475.045C21.133 476.196 20.3858 476.085 19.4652 476.085C18.5445 476.085 17.7974 476.194 17.7974 475.045C17.7974 473.896 18.5445 470.883 19.4652 470.883C20.3858 470.883 21.133 473.896 21.133 475.045ZM16.6861 476.085C16.6861 477.236 15.9389 477.125 15.0183 477.125C14.0976 477.127 13.3505 477.236 13.3505 476.085C13.3505 474.936 14.0976 471.923 15.0183 471.923C15.9389 471.923 16.6861 474.936 16.6861 476.085Z" fill="white"/>
<path d="M20.9766 475.059C15.0773 475.848 9.13031 477.243 6.57043 477.876C6.88875 478.192 7.33859 478.909 7.92185 479.698C10.7276 479.02 16.0284 477.823 21.293 477.122C21.5713 477.068 21.8171 476.917 21.9804 476.7C22.1437 476.482 22.2122 476.214 22.1718 475.951C22.1314 475.688 21.9853 475.449 21.7632 475.284C21.541 475.118 21.2597 475.038 20.9766 475.059Z" fill="#3E721D"/>
<path d="M39.9327 471.108C39.9327 478.913 36.6656 485.739 34.3173 491.036C31.7765 496.766 32.4112 507.092 41.9417 507.092C51.4721 507.092 54.3522 501.399 55.2843 498.172C57.8727 489.214 51.4721 483.899 51.4721 474.979C51.4721 458.923 66.7208 462.491 66.7208 464.275C66.7208 466.059 53.504 466.726 61.0025 480.331C68.5011 493.936 68.6269 519.389 41.9417 519.389C15.2565 519.389 15.2565 503.524 19.0686 496.388C21.7677 491.335 26.693 483.708 20.0217 480.251C15.672 477.998 39.9327 471.108 39.9327 471.108Z" fill="#77B255"/>
<path d="M21.6133 469.028C21.236 469.028 20.8669 468.924 20.553 468.728C20.239 468.532 19.9943 468.254 19.8499 467.927C19.7055 467.601 19.6679 467.242 19.742 466.896C19.816 466.549 19.9983 466.231 20.2657 465.982C20.4239 465.834 24.2323 462.337 30.509 462.337C31.0146 462.337 31.4994 462.525 31.8568 462.86C32.2143 463.195 32.4151 463.648 32.4151 464.122C32.4151 464.595 32.2143 465.048 31.8568 465.383C31.4994 465.718 31.0146 465.906 30.509 465.906C25.8677 465.906 22.9895 468.478 22.9609 468.505C22.7842 468.671 22.5741 468.802 22.3429 468.892C22.1116 468.982 21.8637 469.028 21.6133 469.028Z" fill="#3E721D"/>
<path d="M20.4181 500.359C21.6133 488.392 10.0929 486.904 6.2807 489.507C4.18973 490.934 3.70177 493.651 5.36769 492.22C8.30687 489.694 9.33807 491.551 7.11557 492.889C4.89117 494.227 4.4947 496.718 6.95737 495.009C9.42003 493.3 10.0948 494.413 8.1887 496.605C7.03551 497.933 8.26875 499.171 10.4131 496.495C12.201 494.263 18.4187 494.186 17.3932 501.829C16.97 504.962 20.1646 502.914 20.4181 500.359Z" fill="#5C913B"/>
</g>
<g clip-path="url(#clip3_20_60)">
<path d="M560.751 884.75C553.35 875.253 545.352 880.774 544.386 885.279C543.856 887.749 545.379 890.055 545.598 887.873C545.985 884.024 548.015 884.662 547.328 887.158C546.641 889.654 548.071 891.733 548.677 888.804C549.282 885.874 550.54 886.217 550.673 889.116C550.753 890.87 552.503 890.921 552.209 887.509C551.964 884.663 555.037 881.647 559.573 887.892C561.43 890.455 562.33 886.777 560.751 884.75ZM545.821 847.163C540.702 843.399 537.799 841.847 532.242 845.672C526.685 849.497 525.53 856.334 525.53 856.334C525.53 856.334 522.023 851.043 523.003 847.244C523.387 845.753 526.772 847.98 527.578 847.217C528.384 846.454 527.035 843.426 529.453 841.136C530.259 840.373 532.415 842.637 533.223 841.872C534.028 841.109 535.611 838.19 536.447 838.819C537.622 839.704 538.347 841.274 539.443 841.159C540.54 841.043 541.407 838.935 542.673 839.303C543.939 839.669 543.744 842.11 544.374 842.54C545.004 842.969 546.086 842.353 546.795 843.63C547.504 844.907 546.923 845.558 547.585 846.369C548.246 847.179 550.14 846.609 550.619 847.644C551.1 848.679 550.567 849.386 551.23 850.656C551.892 851.925 552.777 850.787 553.463 852.081C554.149 853.375 553.36 854.617 553.97 855.947C554.578 857.275 556.05 856.292 556.341 857.862C556.632 859.432 555.635 860.683 556.141 861.331C556.648 861.978 557.438 862.115 558.116 863.287C558.792 864.458 557.005 865.229 557.609 866.092C558.213 866.955 558.976 866.95 559.849 867.866C560.721 868.782 559.897 869.873 560.885 870.679C561.874 871.485 562.127 869.913 563.73 870.445C565.333 870.977 565.337 872.819 566.586 872.866C567.835 872.914 567.261 870.586 568.638 870.308C570.016 870.029 571.114 871.039 572.211 870.308C573.308 869.577 571.85 867.47 572.593 866.87C573.336 866.27 575.713 865.661 576.159 864.52C576.605 863.379 575.108 861.925 575.127 860.677C575.145 859.43 576.516 859.26 576.423 858.015C576.33 856.769 574.775 856.685 573.914 855.552C573.052 854.418 573.565 852.829 572.736 852.075C571.908 851.321 571.044 852.139 569.877 851.604C568.71 851.068 568.97 849.387 567.854 848.906C566.738 848.425 564.987 849.572 564.273 848.71C563.56 847.848 563.265 846.385 562.102 845.741C560.94 845.097 559.167 845.651 558.559 844.897C557.95 844.142 557.708 842.627 557.336 842.004C556.964 841.382 555.3 841.934 554.593 840.963C553.886 839.991 554.69 839.343 554.236 838.292C553.781 837.241 552.09 838.107 551.831 836.455C551.572 834.803 552.537 835.123 552.596 834.038C552.657 832.954 550.951 832.313 551.271 831.498C551.591 830.684 552.947 829.808 553.165 828.886C553.382 827.964 552.869 827.424 553.296 826.609C553.723 825.794 555.404 825.946 555.922 825.456C556.44 824.965 556.488 823.177 557.384 822.738C558.281 822.299 561.216 822.389 560.731 823.721C560.247 825.053 553.529 832.03 556.347 835.102C559.165 838.174 576.124 848.156 578.257 852.696C580.39 857.236 582.596 869.092 575.789 872.871C568.982 876.65 559.496 879.685 556.482 873.416C553.466 867.146 549.125 852.589 545.821 847.163Z" fill="#3E721D"/>
<path d="M545.558 845.163C550.46 850.309 552.302 858.815 546.82 862.584C538.367 868.399 535.884 866.574 536.046 868.982C536.627 877.642 529.03 874.433 527.25 874.394C526.802 874.385 521.086 877.424 518.811 875.036C517.336 873.487 518.25 869.618 521.325 869.626C523.652 867.316 525.027 850.974 530.67 845.631C536.312 840.286 542.524 841.978 545.558 845.163Z" fill="#77B255"/>
<path d="M535.661 852.481C535.859 852.677 536.014 852.914 536.115 853.176C536.216 853.439 536.262 853.722 536.249 854.01C536.237 854.297 536.166 854.583 536.042 854.85C535.918 855.117 535.743 855.36 535.527 855.564C535.311 855.769 535.059 855.93 534.785 856.04C534.511 856.149 534.221 856.204 533.932 856.202C533.644 856.199 533.362 856.139 533.105 856.024C532.847 855.91 532.618 855.744 532.432 855.536C532.07 855.131 531.891 854.592 531.931 854.033C531.972 853.474 532.23 852.939 532.65 852.541C533.07 852.144 533.619 851.915 534.182 851.904C534.744 851.893 535.274 852.1 535.661 852.481Z" fill="#292F33"/>
<path d="M523.492 871.9C524.087 872.525 523.31 872.791 522.642 873.423C521.975 874.055 521.668 874.815 521.073 874.19C520.787 873.89 520.64 873.481 520.665 873.054C520.689 872.627 520.883 872.217 521.204 871.913C521.525 871.609 521.946 871.437 522.375 871.435C522.804 871.432 523.206 871.6 523.492 871.9Z" fill="#3E721D"/>
<path d="M535.854 862.342C536.648 863.176 536.03 863.609 535.363 864.241C534.695 864.873 534.229 865.465 533.435 864.632C532.641 863.799 531.102 861.101 531.769 860.469C532.437 859.837 535.06 861.509 535.854 862.342ZM533.348 866.149C534.142 866.984 533.524 867.417 532.857 868.049C532.19 868.682 531.724 869.274 530.929 868.44C530.135 867.607 528.596 864.909 529.263 864.277C529.931 863.645 532.554 865.316 533.348 866.149Z" fill="white"/>
<path d="M535.75 862.46C532.017 867.082 528.669 872.177 527.25 874.394C527.699 874.404 528.521 874.615 529.488 874.787C531.054 872.369 534.071 867.861 537.404 863.738C537.569 863.508 537.643 863.23 537.611 862.96C537.579 862.69 537.444 862.449 537.233 862.286C537.022 862.123 536.751 862.05 536.475 862.082C536.2 862.115 535.94 862.25 535.75 862.46Z" fill="#3E721D"/>
<path d="M546.765 846.579C552.157 852.239 554.502 859.431 556.458 864.884C558.574 870.783 566.167 877.835 573.077 871.291C579.987 864.748 578.144 858.642 576.59 855.662C572.28 847.39 563.968 847.931 557.806 841.463C546.716 829.821 560.237 821.938 561.469 823.232C562.702 824.525 553.579 834.084 568.414 838.8C583.248 843.517 600.92 861.886 581.571 880.208C562.222 898.53 551.264 887.026 549.099 879.235C547.566 873.718 545.869 864.806 538.644 866.88C533.933 868.232 546.765 846.579 546.765 846.579Z" fill="#77B255"/>
<path d="M532.045 857.649C531.772 857.909 531.433 858.087 531.07 858.16C530.707 858.234 530.337 858.2 530.007 858.062C529.677 857.925 529.401 857.69 529.216 857.388C529.03 857.086 528.943 856.73 528.965 856.366C528.977 856.15 529.323 851 533.874 846.69C534.241 846.343 534.722 846.147 535.213 846.144C535.703 846.141 536.162 846.332 536.489 846.675C536.816 847.018 536.983 847.485 536.955 847.973C536.927 848.461 536.705 848.93 536.339 849.277C532.974 852.464 532.664 856.306 532.661 856.345C532.648 856.586 532.586 856.826 532.481 857.05C532.375 857.274 532.227 857.477 532.045 857.649Z" fill="#3E721D"/>
<path d="M552.82 881.187C545.42 871.69 536.039 878.521 535.073 883.025C534.543 885.496 536.066 887.801 536.286 885.62C536.672 881.77 538.702 882.409 538.015 884.905C537.326 887.402 538.759 889.48 539.364 886.55C539.969 883.62 541.228 883.964 541.36 886.863C541.441 888.617 543.19 888.668 542.896 885.255C542.651 882.409 547.107 878.084 551.642 884.33C553.499 886.892 554.401 883.214 552.82 881.187Z" fill="#5C913B"/>
</g>
<path d="M390.002 92.1496C398.432 83.5478 391.858 76.3991 387.25 76.0574C384.723 75.8696 382.64 77.6874 384.837 77.6077C388.715 77.4656 388.356 79.5581 385.783 79.2187C383.209 78.8793 381.338 80.5746 384.331 80.7752C387.325 80.9744 387.154 82.2639 384.292 82.7889C382.56 83.1072 382.747 84.8421 386.099 84.088C388.893 83.4587 392.308 86.0841 386.718 91.4136C384.425 93.5963 388.202 93.9855 390.002 92.1496ZM425.32 72.2906C428.364 66.7226 429.511 63.644 424.955 58.6754C420.398 53.7068 413.447 53.4955 413.447 53.4955C413.447 53.4955 418.227 49.3117 422.137 49.7634C423.67 49.9397 421.917 53.5867 422.785 54.2789C423.653 54.971 426.478 53.2263 429.083 55.3038C429.951 55.9959 427.995 58.4339 428.864 59.1272C429.732 59.8193 432.847 60.9861 432.336 61.8968C431.616 63.1776 430.155 64.1072 430.419 65.1745C430.683 66.2419 432.896 66.812 432.702 68.1125C432.511 69.4129 430.058 69.5519 429.717 70.2326C429.376 70.9132 430.136 71.8983 428.963 72.7725C427.79 73.6468 427.064 73.1613 426.349 73.9251C425.634 74.6888 426.458 76.4817 425.494 77.0954C424.531 77.7117 423.756 77.281 422.585 78.1082C421.414 78.9353 422.665 79.6546 421.472 80.5082C420.279 81.3618 418.938 80.7515 417.7 81.5344C416.463 82.3159 417.64 83.6359 416.119 84.1371C414.599 84.6382 413.22 83.8234 412.645 84.4116C412.071 84.9998 412.042 85.7993 410.97 86.6278C409.898 87.4549 408.889 85.7954 408.114 86.509C407.339 87.2227 407.447 87.9761 406.655 88.9624C405.864 89.9488 404.668 89.2826 404.002 90.3686C403.335 91.4547 404.931 91.4917 404.621 93.1472C404.31 94.8027 402.481 95.0569 402.603 96.2971C402.726 97.5374 404.961 96.6536 405.425 97.9765C405.889 99.2994 405.036 100.522 405.911 101.505C406.786 102.489 408.681 100.763 409.379 101.415C410.076 102.067 411.005 104.332 412.199 104.617C413.393 104.903 414.635 103.227 415.877 103.075C417.119 102.924 417.474 104.255 418.699 103.994C419.924 103.733 419.796 102.185 420.805 101.18C421.814 100.175 423.464 100.465 424.1 99.5447C424.736 98.6241 423.806 97.8822 424.179 96.6562C424.552 95.4302 426.258 95.4585 426.584 94.291C426.911 93.1235 425.533 91.5493 426.293 90.7272C427.052 89.9052 428.466 89.4151 428.947 88.1793C429.429 86.9434 428.637 85.268 429.305 84.5642C429.972 83.8604 431.444 83.4152 432.012 82.9632C432.58 82.5113 431.805 80.9429 432.674 80.1122C433.543 79.2815 434.297 79.9878 435.28 79.3961C436.262 78.8044 435.172 77.2517 436.778 76.7712C438.384 76.2907 438.198 77.2866 439.284 77.1981C440.369 77.1111 440.774 75.3385 441.627 75.5438C442.48 75.7491 443.534 76.9692 444.48 77.0589C445.426 77.1485 445.892 76.5676 446.761 76.8787C447.629 77.1897 447.706 78.8707 448.264 79.3159C448.822 79.7611 450.605 79.5654 451.163 80.3902C451.721 81.2165 452.031 84.1277 450.641 83.8304C449.252 83.5332 441.405 77.846 438.736 81.0475C436.068 84.2489 428.455 102.358 424.233 105.082C420.012 107.806 408.531 111.598 403.85 105.388C399.169 99.1781 394.863 90.2219 400.683 86.3917C406.503 82.5602 420.378 76.2928 425.32 72.2906Z" fill="#3E721D"/>
<path d="M427.272 71.7594C422.825 77.3012 414.623 80.2772 410.132 75.3751C403.204 67.8161 404.68 65.116 402.309 65.6034C393.784 67.355 395.939 59.4147 395.736 57.651C395.684 57.2076 391.887 51.9741 393.95 49.4024C395.288 47.7349 399.258 48.1114 399.668 51.1504C402.279 53.1348 418.705 52.2698 424.782 57.1169C430.861 61.9626 430.024 68.3296 427.272 71.7594Z" fill="#77B255"/>
<path d="M418.654 62.9782C418.486 63.2012 418.272 63.3859 418.025 63.5215C417.778 63.6571 417.502 63.7407 417.215 63.7675C416.928 63.7943 416.634 63.7637 416.352 63.6775C416.07 63.5913 415.805 63.4513 415.572 63.2657C415.34 63.0801 415.145 62.8527 414.998 62.597C414.852 62.3413 414.758 62.0625 414.722 61.7771C414.685 61.4917 414.707 61.2055 414.785 60.9354C414.864 60.6654 414.998 60.4169 415.179 60.2048C415.532 59.7924 416.044 59.5417 416.605 59.5058C417.166 59.4699 417.733 59.6516 418.185 60.0125C418.637 60.3735 418.939 60.8851 419.026 61.4388C419.114 61.9925 418.98 62.5447 418.654 62.9782Z" fill="#292F33"/>
<path d="M397.703 53.5996C397.163 54.2725 396.793 53.541 396.074 52.9676C395.355 52.3942 394.558 52.195 395.098 51.5221C395.357 51.1988 395.743 50.9982 396.171 50.9644C396.599 50.9306 397.033 51.0664 397.379 51.3419C397.724 51.6173 397.952 52.01 398.013 52.4334C398.074 52.8568 397.962 53.2763 397.703 53.5996Z" fill="#3E721D"/>
<path d="M408.881 64.5099C408.161 65.4084 407.646 64.8567 406.927 64.2833C406.209 63.7099 405.557 63.3295 406.277 62.4324C406.997 61.5352 409.468 59.6476 410.187 60.221C410.906 60.7944 409.601 63.6127 408.881 64.5099ZM404.757 62.5524C404.036 63.451 403.522 62.8993 402.803 62.3259C402.083 61.7539 401.432 61.3735 402.153 60.4749C402.872 59.5778 405.344 57.6901 406.063 58.2635C406.782 58.8369 405.477 61.6553 404.757 62.5524Z" fill="white"/>
<path d="M408.75 64.4238C403.65 61.3654 398.132 58.7509 395.736 57.6511C395.787 58.0959 395.689 58.9361 395.65 59.9151C398.266 61.1332 403.155 63.4999 407.705 66.2313C407.956 66.3627 408.243 66.3979 408.507 66.3298C408.77 66.2616 408.992 66.0952 409.125 65.8646C409.258 65.6339 409.294 65.3564 409.224 65.0887C409.155 64.8209 408.985 64.5831 408.75 64.4238Z" fill="#3E721D"/>
<path d="M426.029 73.1442C421.138 79.2391 414.311 82.5344 409.158 85.208C403.584 88.1002 397.609 96.5589 405.052 102.495C412.494 108.43 418.31 105.779 421.059 103.839C428.693 98.4564 427.025 90.3199 432.614 83.3543C442.674 70.8162 452.346 83.0996 451.228 84.4927C450.11 85.8859 439.372 78.1752 436.703 93.4694C434.034 108.764 418.184 128.717 397.347 112.097C376.509 95.4774 386.449 83.0884 393.897 79.8902C399.171 77.6259 407.795 74.7379 404.752 67.883C402.767 63.4144 426.029 73.1442 426.029 73.1442Z" fill="#77B255"/>
<path d="M413.027 60.11C412.732 59.8756 412.509 59.5644 412.386 59.2159C412.264 58.8674 412.248 58.4973 412.339 58.1525C412.431 57.8078 412.627 57.504 412.901 57.2797C413.176 57.0554 413.518 56.9207 413.883 56.8927C414.099 56.8756 419.264 56.517 424.165 60.4263C424.56 60.7411 424.821 61.1898 424.89 61.6737C424.96 62.1576 424.832 62.637 424.536 63.0065C424.239 63.376 423.798 63.6053 423.309 63.6439C422.821 63.6825 422.324 63.5273 421.93 63.2125C418.305 60.3218 414.446 60.5381 414.407 60.5412C414.165 60.5606 413.918 60.5326 413.682 60.4586C413.445 60.3846 413.222 60.2661 413.027 60.11Z" fill="#3E721D"/>
<path d="M392.463 83.8317C400.894 75.231 392.831 66.8941 388.223 66.5523C385.696 66.3645 383.612 68.1823 385.81 68.1026C389.688 67.9606 389.329 70.053 386.755 69.7137C384.18 69.3731 382.31 71.071 385.304 71.2702C388.298 71.4693 388.127 72.7589 385.265 73.2839C383.533 73.6021 383.72 75.3371 387.071 74.5829C389.866 73.9537 394.769 77.7662 389.18 83.0957C386.886 85.2784 390.664 85.6688 392.463 83.8317Z" fill="#5C913B"/>
<path d="M885.897 346.242C881.229 335.153 872.066 338.409 869.958 342.508C868.801 344.755 869.67 347.376 870.451 345.327C871.829 341.71 873.623 342.854 872.308 345.086C870.992 347.317 871.831 349.695 873.181 347.024C874.53 344.352 875.655 345.011 875.026 347.844C874.646 349.558 876.322 350.061 876.929 346.69C877.435 343.879 881.19 341.764 883.939 348.971C885.063 351.927 886.893 348.61 885.897 346.242ZM881.291 306.078C877.331 301.115 874.933 298.863 868.57 301.115C862.206 303.366 859.306 309.668 859.306 309.668C859.306 309.668 857.3 303.65 859.239 300.235C859.998 298.896 862.686 301.924 863.663 301.396C864.64 300.869 864.128 297.595 867.061 296.011C868.038 295.483 869.529 298.229 870.508 297.7C871.485 297.172 873.776 294.765 874.418 295.589C875.322 296.748 875.612 298.452 876.701 298.625C877.79 298.798 879.178 296.987 880.304 297.671C881.431 298.353 880.605 300.66 881.101 301.238C881.597 301.816 882.803 301.502 883.154 302.919C883.506 304.336 882.775 304.814 883.202 305.768C883.629 306.722 885.607 306.663 885.799 307.787C885.993 308.911 885.294 309.455 885.602 310.853C885.911 312.251 887.062 311.381 887.387 312.809C887.711 314.236 886.626 315.23 886.867 316.673C887.108 318.113 888.785 317.546 888.657 319.137C888.528 320.728 887.239 321.678 887.559 322.435C887.878 323.191 888.606 323.529 888.954 324.836C889.301 326.142 887.375 326.423 887.733 327.413C888.091 328.402 888.829 328.596 889.432 329.707C890.036 330.817 888.955 331.657 889.699 332.691C890.443 333.726 891.098 332.275 892.507 333.204C893.916 334.133 893.439 335.912 894.633 336.282C895.826 336.652 895.879 334.256 897.282 334.344C898.685 334.433 899.482 335.692 900.732 335.271C901.981 334.85 901.124 332.438 901.998 332.051C902.872 331.665 905.326 331.693 906.054 330.707C906.782 329.722 905.717 327.929 906.06 326.729C906.404 325.529 907.772 325.722 908.007 324.495C908.243 323.268 906.763 322.783 906.227 321.465C905.691 320.148 906.601 318.746 905.998 317.803C905.395 316.861 904.347 317.426 903.36 316.606C902.372 315.786 903.062 314.231 902.111 313.477C901.159 312.723 899.168 313.376 898.704 312.358C898.24 311.34 898.338 309.851 897.383 308.928C896.429 308.005 894.573 308.08 894.182 307.194C893.791 306.307 893.953 304.781 893.756 304.084C893.56 303.387 891.809 303.488 891.38 302.366C890.95 301.245 891.896 300.828 891.732 299.695C891.568 298.562 889.709 298.959 889.89 297.297C890.071 295.635 890.918 296.194 891.259 295.162C891.601 294.131 890.121 293.07 890.643 292.366C891.164 291.663 892.702 291.169 893.153 290.335C893.604 289.501 893.248 288.847 893.874 288.171C894.499 287.494 896.082 288.078 896.71 287.738C897.339 287.399 897.852 285.686 898.831 285.493C899.812 285.303 902.622 286.151 901.807 287.312C900.991 288.472 892.683 293.466 894.603 297.163C896.522 300.86 910.292 314.898 911.166 319.835C912.04 324.772 911.076 336.792 903.517 338.675C895.958 340.558 886.007 341.027 884.733 334.192C883.458 327.356 883.066 312.174 881.291 306.078Z" fill="#3E721D"/>
<path d="M881.56 304.078C884.95 310.318 884.508 319.01 878.231 321.226C868.551 324.648 866.631 322.242 866.159 324.609C864.459 333.121 857.962 328.051 856.253 327.551C855.823 327.427 849.51 328.878 847.937 325.982C846.917 324.104 848.809 320.605 851.777 321.411C854.626 319.785 860.219 304.362 867.062 300.667C873.905 296.97 879.462 300.216 881.56 304.078Z" fill="#77B255"/>
<path d="M870.093 308.576C870.234 308.817 870.321 309.085 870.35 309.365C870.379 309.645 870.349 309.93 870.262 310.204C870.175 310.479 870.033 310.736 869.843 310.962C869.654 311.188 869.421 311.377 869.159 311.518C868.897 311.659 868.611 311.75 868.318 311.785C868.025 311.82 867.731 311.797 867.453 311.72C867.175 311.643 866.919 311.511 866.7 311.334C866.481 311.157 866.304 310.937 866.179 310.688C865.935 310.203 865.902 309.636 866.087 309.107C866.272 308.577 866.661 308.128 867.17 307.853C867.68 307.578 868.27 307.5 868.816 307.635C869.361 307.77 869.819 308.107 870.093 308.576Z" fill="#292F33"/>
<path d="M853.275 324.168C853.687 324.926 852.867 324.981 852.057 325.418C851.248 325.856 850.754 326.51 850.342 325.752C850.144 325.388 850.109 324.956 850.244 324.55C850.38 324.144 850.674 323.798 851.063 323.588C851.452 323.378 851.903 323.321 852.318 323.43C852.733 323.539 853.077 323.804 853.275 324.168Z" fill="#3E721D"/>
<path d="M867.706 318.147C868.255 319.159 867.546 319.417 866.736 319.854C865.926 320.291 865.321 320.741 864.773 319.731C864.224 318.721 863.441 315.716 864.251 315.279C865.061 314.842 867.157 317.137 867.706 318.147ZM864.292 321.173C864.842 322.185 864.132 322.443 863.323 322.88C862.514 323.318 861.909 323.769 861.359 322.757C860.81 321.747 860.028 318.743 860.838 318.305C861.647 317.868 863.744 320.163 864.292 321.173Z" fill="white"/>
<path d="M867.575 318.234C862.765 321.729 858.202 325.779 856.253 327.552C856.684 327.678 857.422 328.095 858.312 328.511C860.455 326.583 864.544 323.014 868.839 319.897C869.058 319.718 869.202 319.468 869.241 319.2C869.281 318.931 869.213 318.663 869.052 318.451C868.891 318.238 868.648 318.098 868.374 318.058C868.099 318.017 867.814 318.08 867.575 318.234Z" fill="#3E721D"/>
<path d="M882.356 305.758C886.084 312.622 886.472 320.175 886.937 325.947C887.44 332.193 892.931 340.971 901.311 336.446C909.691 331.92 909.504 325.547 908.782 322.267C906.779 313.161 898.613 311.527 894.352 303.683C886.682 289.565 901.795 285.462 902.647 287.03C903.499 288.599 892.196 295.462 905.288 303.864C918.381 312.267 930.65 334.588 907.185 347.259C883.721 359.93 876.142 345.979 876.085 337.894C876.045 332.17 876.733 323.125 869.215 323.252C864.314 323.336 882.356 305.758 882.356 305.758Z" fill="#77B255"/>
<path d="M865.254 312.628C864.922 312.808 864.548 312.891 864.178 312.868C863.809 312.845 863.46 312.716 863.177 312.498C862.895 312.279 862.69 311.982 862.59 311.642C862.489 311.302 862.498 310.936 862.614 310.59C862.682 310.385 864.361 305.502 869.88 302.521C870.325 302.281 870.841 302.216 871.315 302.341C871.789 302.465 872.182 302.769 872.408 303.185C872.634 303.601 872.674 304.095 872.52 304.559C872.365 305.023 872.029 305.419 871.584 305.659C867.503 307.863 866.201 311.491 866.189 311.528C866.113 311.758 865.991 311.974 865.83 312.162C865.67 312.351 865.474 312.509 865.254 312.628Z" fill="#3E721D"/>
<path d="M879.169 340.745C874.503 329.655 863.663 333.817 861.554 337.916C860.397 340.163 861.266 342.784 862.047 340.735C863.425 337.118 865.219 338.262 863.904 340.493C862.587 342.726 863.428 345.104 864.777 342.432C866.126 339.76 867.251 340.419 866.623 343.252C866.243 344.966 867.918 345.469 868.526 342.098C869.032 339.287 874.462 336.267 877.211 343.474C878.336 346.43 880.167 343.112 879.169 340.745Z" fill="#5C913B"/>
<path d="M177.269 706.519C176.775 707.091 176.185 707.547 175.536 707.858C174.886 708.169 174.188 708.329 173.483 708.33H39.3645C34.6236 708.33 32.2222 701.743 35.5365 697.831L57.5358 671.859C58.0313 671.273 58.6253 670.806 59.2826 670.486C59.9398 670.167 60.6468 670.001 61.3614 670H195.982C200.752 670 203.14 676.656 199.768 680.549L177.269 706.519ZM177.269 822.516C176.26 823.648 174.9 824.282 173.483 824.281H39.3645C34.6236 824.281 32.2222 817.858 35.5365 814.043L57.5358 788.72C58.0374 788.146 58.6339 787.689 59.2909 787.379C59.9479 787.068 60.6525 786.908 61.3639 786.909H195.982C200.752 786.909 203.14 793.398 199.768 797.194L177.269 822.516ZM177.269 730.218C176.259 729.086 174.899 728.453 173.483 728.455H39.3645C34.6236 728.455 32.2222 734.878 35.5365 738.693L57.5358 764.014C58.037 764.589 58.6331 765.045 59.2897 765.356C59.9462 765.667 60.6503 765.827 61.3614 765.826H195.982C200.752 765.826 203.14 759.337 199.768 755.542L177.269 730.218Z" fill="url(#paint0_linear_20_60)"/>
<g clip-path="url(#clip4_20_60)">
<path d="M104.012 78.7503C159.516 62.6327 217.533 94.1301 233.591 149.098C249.649 204.066 217.666 261.698 162.165 277.816C106.663 293.933 48.6465 262.448 32.5853 207.468C16.524 152.488 48.502 94.8697 104.012 78.7503Z" fill="#5CEC6B"/>
<path d="M141.618 161.419L137.293 146.613L171.482 136.685L164.891 114.125L71.7935 141.159L78.384 163.719L112.577 153.79L116.899 168.584C89.4792 177.918 70.1769 189.436 72.0843 195.965C73.9917 202.495 96.4886 201.875 124.639 195.08L138.494 242.507L163.218 235.328L149.362 187.896C176.73 178.573 195.991 167.072 194.086 160.548C192.18 154.025 169.737 154.634 141.627 161.421M148.188 183.879L148.185 183.867C147.5 184.114 143.978 185.367 135.998 187.685C129.618 189.537 125.078 190.662 123.472 191.039L123.478 191.059C98.6122 197.112 79.0496 198.199 77.5696 193.133C76.0896 188.067 93.1822 178.516 117.416 170.309L122.245 186.841C123.885 186.484 128.563 185.417 134.911 183.574C142.535 181.36 146.276 179.932 146.961 179.664L142.132 163.132C166.95 157.097 186.472 156.026 187.946 161.074C189.421 166.123 172.368 175.674 148.189 183.868" fill="white"/>
</g>
<defs>
<linearGradient id="paint0_linear_20_60" x1="46.219" y1="828.463" x2="207.41" y2="687.011" gradientUnits="userSpaceOnUse">
<stop stop-color="#D900FF"/>
<stop offset="1" stop-color="#5CEC6B"/>
</linearGradient>
<clipPath id="clip0_20_60">
<rect width="209.255" height="207.579" fill="white" transform="matrix(0.914261 -0.405125 0.407153 0.91336 654.69 84.7745)"/>
</clipPath>
<clipPath id="clip1_20_60">
<rect width="551.217" height="550.643" fill="white" transform="matrix(0.821945 0.569567 -0.571868 0.820345 411.254 96.7612)"/>
</clipPath>
<clipPath id="clip2_20_60">
<rect width="68.6191" height="64.2255" fill="white" transform="translate(0.0078125 455.164)"/>
</clipPath>
<clipPath id="clip3_20_60">
<rect width="68.522" height="64.3168" fill="white" transform="matrix(0.72611 -0.687579 0.689744 0.724053 506.803 862.431)"/>
</clipPath>
<clipPath id="clip4_20_60">
<rect width="209.309" height="207.385" fill="white" transform="matrix(0.960329 -0.278868 0.28041 0.95988 3.50879 107.935)"/>
</clipPath>
</defs>
</svg>
