<svg width="284" height="51" viewBox="0 0 284 51" fill="none" xmlns="http://www.w3.org/2000/svg">
<g clip-path="url(#clip0_5_19)">
<mask id="mask0_5_19" style="mask-type:luminance" maskUnits="userSpaceOnUse" x="0" y="0" width="56" height="50">
<path d="M55.2708 0H0V49.8409H55.2708V0Z" fill="white"/>
</mask>
<g mask="url(#mask0_5_19)">
<path d="M37.8441 34.9167L39.9936 37.2483L38.9228 42.9099L37.8441 48.5716L36.7689 42.9099L35.6928 37.2483L37.8441 34.9167ZM20.3664 34.2283L22.5142 36.5599L21.4416 42.2168L20.3664 47.8784L19.2921 42.2168L18.2135 36.5599L20.3664 34.2283Z" fill="#E7E5E5"/>
<path d="M21.9779 40.7839C21.9779 38.3339 22.9633 39.9257 28.1691 39.9257C33.3767 39.9257 35.1721 38.3331 35.1721 40.7839C35.1721 43.2361 33.7826 49.8619 28.5732 49.8619C23.3658 49.8619 21.9779 43.237 21.9779 40.7839Z" fill="#089987"/>
<path fill-rule="evenodd" clip-rule="evenodd" d="M36.9381 31.1661C35.2584 30.3741 33.6029 29.568 31.4732 29.0805C39.3614 19.124 37.1558 5.50738 33.6616 0.0170898C39.9564 6.67552 47.7168 28.4918 36.9381 31.1661Z" fill="#0A7E71"/>
<path fill-rule="evenodd" clip-rule="evenodd" d="M47.2876 10.6464C48.2012 11.0755 48.9613 13.0099 49.3179 14.2911C50.628 19.0243 48.8472 24.992 44.8929 28.4848C44.4852 26.657 43.9014 26.0504 43.0265 23.4454C46.2676 19.5554 47.209 14.9826 47.2876 10.6464ZM19.672 31.2673C21.3483 30.4753 23.0073 29.6708 25.1343 29.1818C17.2453 19.2268 19.4509 5.60857 22.9495 0.118286C16.6511 6.77672 8.88995 28.5938 19.672 31.2673Z" fill="#0A7E71"/>
<path fill-rule="evenodd" clip-rule="evenodd" d="M9.31916 10.7461C8.4098 11.1744 7.64895 13.1088 7.29315 14.39C5.97961 19.1232 7.76295 25.0917 11.7183 28.5829C12.1224 26.7559 12.7071 26.1501 13.5811 23.5443C10.3382 19.6551 9.39776 15.0823 9.31916 10.7461Z" fill="#0A7E71"/>
<path d="M48.3049 34.2267C48.3049 39.9763 39.4693 44.6395 28.5699 44.6395C17.6668 44.6395 8.83209 39.9763 8.83209 34.2267C8.83209 28.4747 17.6676 15.0854 28.5699 15.0854C39.4685 15.0854 48.3049 28.4747 48.3049 34.2267Z" fill="#089987"/>
<path d="M42.4807 37.3028C42.4807 41.3532 36.2559 44.6396 28.5767 44.6396C20.8992 44.6396 14.6726 41.3532 14.6726 37.3028C14.6726 33.2516 20.8984 23.8185 28.5767 23.8185C36.2585 23.8185 42.4807 33.2493 42.4807 37.3028Z" fill="#0A7E71"/>
<path d="M37.8441 36.7498C37.844 36.5092 37.8964 36.2709 37.9984 36.0486C38.1005 35.8262 38.25 35.6241 38.4386 35.4539C38.6273 35.2837 38.8512 35.1486 39.0977 35.0564C39.3442 34.9643 39.6084 34.9167 39.8752 34.9166C40.1421 34.9165 40.4064 34.9638 40.653 35.0558C40.8996 35.1479 41.1236 35.2827 41.3124 35.4528C41.5011 35.6229 41.651 35.8248 41.7531 36.0471C41.8554 36.2694 41.9081 36.5076 41.9082 36.7483C41.9085 37.2342 41.6946 37.7004 41.3136 38.0442C40.9327 38.388 40.4159 38.5813 39.877 38.5816C39.338 38.5817 38.821 38.3888 38.4398 38.0454C38.0586 37.7018 37.8443 37.2358 37.8441 36.7498ZM15.3126 36.7498C15.3124 36.2638 15.5263 35.7977 15.9072 35.4539C16.2881 35.1101 16.8048 34.9169 17.3438 34.9166C17.8827 34.9164 18.3997 35.1093 18.7809 35.4528C19.1621 35.7963 19.3764 36.2623 19.3768 36.7483C19.377 37.2342 19.1631 37.7004 18.7821 38.0442C18.4012 38.388 17.8845 38.5813 17.3455 38.5816C16.8066 38.5817 16.2896 38.3888 15.9084 38.0454C15.5272 37.7018 15.3128 37.2358 15.3126 36.7498Z" fill="#25333A"/>
<path d="M38.4806 21.5172C39.4443 22.6939 39.9331 24.32 39.6904 26.0527C39.2474 29.2247 36.5236 31.5352 33.6106 31.2073C31.184 30.9325 29.3937 28.8851 29.1372 26.3612C32.5804 25.2257 35.7697 23.6572 38.4806 21.5172ZM18.4794 21.5172C17.5148 22.6939 17.0311 24.3184 17.2695 26.0512C17.7117 29.2247 20.4355 31.5337 23.3493 31.2073C25.7761 30.9325 27.5663 28.8851 27.8219 26.3612C24.3822 25.2257 21.1895 23.6572 18.4794 21.5172Z" fill="#CB2F42"/>
<path d="M40.3019 19.0385H38.5462C38.4563 19.0385 38.3907 19.0695 38.3113 19.082C38.2215 19.0929 38.136 19.0976 38.0444 19.1303C37.8959 19.1832 37.6126 19.3748 37.5885 19.3951C33.3473 23.123 27.7926 23.9727 22.5003 21.518C19.6556 20.1995 19.8923 19.0385 16.8455 19.0385C15.6036 19.0385 15.1407 20.3398 15.8912 21.1184C22.756 28.2582 34.3957 28.2582 41.2605 21.1184C42.0102 20.3398 41.5464 19.0385 40.3019 19.0385Z" fill="#036A5C"/>
</g>
<path d="M78.9508 40.4976C76.6894 40.4976 74.7481 40.0176 73.1268 39.0576C71.5054 38.0763 70.2574 36.7216 69.3828 34.9936C68.5081 33.2443 68.0708 31.2283 68.0708 28.9456C68.0708 26.663 68.5081 24.647 69.3828 22.8976C70.2574 21.1483 71.5054 19.783 73.1268 18.8016C74.7481 17.8203 76.6894 17.3296 78.9508 17.3296C81.6388 17.3296 83.8361 18.0016 85.5428 19.3456C87.2708 20.6683 88.3481 22.535 88.7748 24.9456H84.2628C83.9854 23.7296 83.3881 22.7803 82.4708 22.0976C81.5748 21.3936 80.3801 21.0416 78.8868 21.0416C76.8174 21.0416 75.1961 21.7456 74.0228 23.1536C72.8494 24.5616 72.2628 26.4923 72.2628 28.9456C72.2628 31.399 72.8494 33.3296 74.0228 34.7376C75.1961 36.1243 76.8174 36.8176 78.8868 36.8176C80.3801 36.8176 81.5748 36.4976 82.4708 35.8576C83.3881 35.1963 83.9854 34.2896 84.2628 33.1376H88.7748C88.3481 35.4416 87.2708 37.2443 85.5428 38.5456C83.8361 39.847 81.6388 40.4976 78.9508 40.4976ZM92.3045 40.1136V24.2416H95.9525L96.3365 27.2176C96.9125 26.1936 97.6912 25.383 98.6725 24.7856C99.6752 24.167 100.849 23.8576 102.193 23.8576V28.1776H101.041C100.145 28.1776 99.3445 28.3163 98.6405 28.5936C97.9365 28.871 97.3819 29.351 96.9765 30.0336C96.5925 30.7163 96.4005 31.6656 96.4005 32.8816V40.1136H92.3045ZM107.2 21.7776C106.453 21.7776 105.835 21.5536 105.344 21.1056C104.875 20.6576 104.64 20.0923 104.64 19.4096C104.64 18.727 104.875 18.1723 105.344 17.7456C105.835 17.2976 106.453 17.0736 107.2 17.0736C107.947 17.0736 108.555 17.2976 109.024 17.7456C109.515 18.1723 109.76 18.727 109.76 19.4096C109.76 20.0923 109.515 20.6576 109.024 21.1056C108.555 21.5536 107.947 21.7776 107.2 21.7776ZM105.152 40.1136V24.2416H109.248V40.1136H105.152ZM113.523 47.1536V24.2416H117.171L117.619 26.5136C118.131 25.8096 118.803 25.191 119.635 24.6576C120.489 24.1243 121.587 23.8576 122.931 23.8576C124.425 23.8576 125.758 24.2203 126.931 24.9456C128.105 25.671 129.033 26.663 129.715 27.9216C130.398 29.1803 130.739 30.6096 130.739 32.2096C130.739 33.8096 130.398 35.239 129.715 36.4976C129.033 37.735 128.105 38.7163 126.931 39.4416C125.758 40.1456 124.425 40.4976 122.931 40.4976C121.737 40.4976 120.691 40.2736 119.795 39.8256C118.899 39.3776 118.174 38.7483 117.619 37.9376V47.1536H113.523ZM122.067 36.9136C123.369 36.9136 124.446 36.4763 125.299 35.6016C126.153 34.727 126.579 33.5963 126.579 32.2096C126.579 30.823 126.153 29.6816 125.299 28.7856C124.446 27.8896 123.369 27.4416 122.067 27.4416C120.745 27.4416 119.657 27.8896 118.803 28.7856C117.971 29.6603 117.555 30.791 117.555 32.1776C117.555 33.5643 117.971 34.7056 118.803 35.6016C119.657 36.4763 120.745 36.9136 122.067 36.9136ZM140.845 40.1136C139.181 40.1136 137.848 39.7083 136.845 38.8976C135.843 38.087 135.341 36.647 135.341 34.5776V27.6656H132.621V24.2416H135.341L135.821 19.9856H139.437V24.2416H143.725V27.6656H139.437V34.6096C139.437 35.3776 139.597 35.911 139.917 36.2096C140.259 36.487 140.835 36.6256 141.645 36.6256H143.629V40.1136H140.845ZM154.452 40.4976C152.916 40.4976 151.529 40.1456 150.292 39.4416C149.076 38.7376 148.105 37.767 147.38 36.5296C146.676 35.271 146.324 33.8203 146.324 32.1776C146.324 30.535 146.686 29.095 147.412 27.8576C148.137 26.599 149.108 25.6176 150.324 24.9136C151.561 24.2096 152.948 23.8576 154.484 23.8576C155.998 23.8576 157.364 24.2096 158.58 24.9136C159.817 25.6176 160.788 26.599 161.492 27.8576C162.217 29.095 162.58 30.535 162.58 32.1776C162.58 33.8203 162.217 35.271 161.492 36.5296C160.788 37.767 159.817 38.7376 158.58 39.4416C157.342 40.1456 155.966 40.4976 154.452 40.4976ZM154.452 36.9456C155.518 36.9456 156.446 36.551 157.236 35.7616C158.025 34.951 158.42 33.7563 158.42 32.1776C158.42 30.599 158.025 29.415 157.236 28.6256C156.446 27.815 155.529 27.4096 154.484 27.4096C153.396 27.4096 152.457 27.815 151.668 28.6256C150.9 29.415 150.516 30.599 150.516 32.1776C150.516 33.7563 150.9 34.951 151.668 35.7616C152.457 36.551 153.385 36.9456 154.452 36.9456ZM173.538 40.4976C172.045 40.4976 170.711 40.135 169.538 39.4096C168.365 38.6843 167.437 37.6923 166.754 36.4336C166.071 35.175 165.73 33.7456 165.73 32.1456C165.73 30.5456 166.071 29.127 166.754 27.8896C167.437 26.631 168.365 25.6496 169.538 24.9456C170.711 24.2203 172.045 23.8576 173.538 23.8576C174.733 23.8576 175.778 24.0816 176.674 24.5296C177.57 24.9776 178.295 25.607 178.85 26.4176V17.0736H182.946V40.1136H179.298L178.85 37.8416C178.338 38.5456 177.655 39.1643 176.802 39.6976C175.97 40.231 174.882 40.4976 173.538 40.4976ZM174.402 36.9136C175.725 36.9136 176.802 36.4763 177.634 35.6016C178.487 34.7056 178.914 33.5643 178.914 32.1776C178.914 30.791 178.487 29.6603 177.634 28.7856C176.802 27.8896 175.725 27.4416 174.402 27.4416C173.101 27.4416 172.023 27.879 171.17 28.7536C170.317 29.6283 169.89 30.759 169.89 32.1456C169.89 33.5323 170.317 34.6736 171.17 35.5696C172.023 36.4656 173.101 36.9136 174.402 36.9136ZM187.117 40.1136V24.2416H190.765L191.149 27.2176C191.725 26.1936 192.504 25.383 193.485 24.7856C194.488 24.167 195.661 23.8576 197.005 23.8576V28.1776H195.853C194.957 28.1776 194.157 28.3163 193.453 28.5936C192.749 28.871 192.194 29.351 191.789 30.0336C191.405 30.7163 191.213 31.6656 191.213 32.8816V40.1136H187.117ZM205.277 40.4976C203.911 40.4976 202.791 40.2843 201.917 39.8576C201.042 39.4096 200.391 38.823 199.965 38.0976C199.538 37.3723 199.325 36.5723 199.325 35.6976C199.325 34.2256 199.901 33.031 201.053 32.1136C202.205 31.1963 203.933 30.7376 206.237 30.7376H210.269V30.3536C210.269 29.2656 209.959 28.4656 209.341 27.9536C208.722 27.4416 207.954 27.1856 207.037 27.1856C206.205 27.1856 205.479 27.3883 204.861 27.7936C204.242 28.1776 203.858 28.7536 203.709 29.5216H199.709C199.815 28.3696 200.199 27.367 200.861 26.5136C201.543 25.6603 202.418 25.0096 203.485 24.5616C204.551 24.0923 205.746 23.8576 207.069 23.8576C209.33 23.8576 211.111 24.423 212.413 25.5536C213.714 26.6843 214.365 28.2843 214.365 30.3536V40.1136H210.877L210.493 37.5536C210.023 38.407 209.362 39.111 208.509 39.6656C207.677 40.2203 206.599 40.4976 205.277 40.4976ZM206.205 37.2976C207.378 37.2976 208.285 36.9136 208.925 36.1456C209.586 35.3776 210.002 34.4283 210.173 33.2976H206.685C205.597 33.2976 204.818 33.5003 204.349 33.9056C203.879 34.2896 203.645 34.7696 203.645 35.3456C203.645 35.9643 203.879 36.4443 204.349 36.7856C204.818 37.127 205.437 37.2976 206.205 37.2976ZM224.993 35.3776C224.225 35.3776 223.511 35.2923 222.849 35.1216L221.665 36.3056C222.028 36.4976 222.519 36.6576 223.137 36.7856C223.756 36.9136 224.759 37.0416 226.145 37.1696C228.257 37.3616 229.793 37.863 230.753 38.6736C231.713 39.4843 232.193 40.6043 232.193 42.0336C232.193 42.9723 231.937 43.8576 231.425 44.6896C230.913 45.543 230.124 46.2256 229.057 46.7376C227.991 47.271 226.625 47.5376 224.961 47.5376C222.7 47.5376 220.876 47.111 219.489 46.2576C218.103 45.4256 217.409 44.167 217.409 42.4816C217.409 41.0523 218.103 39.815 219.489 38.7696C219.063 38.5776 218.689 38.375 218.369 38.1616C218.071 37.9483 217.804 37.7243 217.569 37.4896V36.7536L220.353 33.8096C219.116 32.7216 218.497 31.3243 218.497 29.6176C218.497 28.551 218.753 27.5803 219.265 26.7056C219.799 25.831 220.545 25.1376 221.505 24.6256C222.465 24.1136 223.628 23.8576 224.993 23.8576C225.889 23.8576 226.721 23.9856 227.489 24.2416H233.505V26.7376L230.785 26.9296C231.212 27.7403 231.425 28.6363 231.425 29.6176C231.425 30.6843 231.169 31.655 230.657 32.5296C230.145 33.4043 229.399 34.0976 228.417 34.6096C227.457 35.1216 226.316 35.3776 224.993 35.3776ZM224.993 32.2416C225.825 32.2416 226.508 32.0176 227.041 31.5696C227.596 31.1216 227.873 30.4816 227.873 29.6496C227.873 28.8176 227.596 28.1776 227.041 27.7296C226.508 27.2816 225.825 27.0576 224.993 27.0576C224.119 27.0576 223.415 27.2816 222.881 27.7296C222.348 28.1776 222.081 28.8176 222.081 29.6496C222.081 30.4816 222.348 31.1216 222.881 31.5696C223.415 32.0176 224.119 32.2416 224.993 32.2416ZM221.153 42.0656C221.153 42.855 221.516 43.4416 222.241 43.8256C222.988 44.231 223.895 44.4336 224.961 44.4336C225.985 44.4336 226.817 44.2203 227.457 43.7936C228.097 43.3883 228.417 42.8336 228.417 42.1296C228.417 41.5536 228.204 41.0736 227.777 40.6896C227.372 40.3056 226.551 40.071 225.313 39.9856C224.439 39.9216 223.628 39.8256 222.881 39.6976C222.263 40.039 221.815 40.4123 221.537 40.8176C221.281 41.223 221.153 41.639 221.153 42.0656ZM243.483 40.4976C241.947 40.4976 240.56 40.1456 239.323 39.4416C238.107 38.7376 237.136 37.767 236.411 36.5296C235.707 35.271 235.355 33.8203 235.355 32.1776C235.355 30.535 235.718 29.095 236.443 27.8576C237.168 26.599 238.139 25.6176 239.355 24.9136C240.592 24.2096 241.979 23.8576 243.515 23.8576C245.03 23.8576 246.395 24.2096 247.611 24.9136C248.848 25.6176 249.819 26.599 250.523 27.8576C251.248 29.095 251.611 30.535 251.611 32.1776C251.611 33.8203 251.248 35.271 250.523 36.5296C249.819 37.767 248.848 38.7376 247.611 39.4416C246.374 40.1456 244.998 40.4976 243.483 40.4976ZM243.483 36.9456C244.55 36.9456 245.478 36.551 246.267 35.7616C247.056 34.951 247.451 33.7563 247.451 32.1776C247.451 30.599 247.056 29.415 246.267 28.6256C245.478 27.815 244.56 27.4096 243.515 27.4096C242.427 27.4096 241.488 27.815 240.699 28.6256C239.931 29.415 239.547 30.599 239.547 32.1776C239.547 33.7563 239.931 34.951 240.699 35.7616C241.488 36.551 242.416 36.9456 243.483 36.9456ZM242.427 22.9616V20.0816L249.659 16.1776V19.5056L242.427 22.9616ZM255.273 40.1136V24.2416H258.889L259.209 26.9296C259.7 25.991 260.404 25.2443 261.321 24.6896C262.26 24.135 263.359 23.8576 264.617 23.8576C266.58 23.8576 268.105 24.4763 269.193 25.7136C270.281 26.951 270.825 28.7643 270.825 31.1536V40.1136H266.729V31.5376C266.729 30.1723 266.452 29.127 265.897 28.4016C265.343 27.6763 264.479 27.3136 263.305 27.3136C262.153 27.3136 261.204 27.719 260.457 28.5296C259.732 29.3403 259.369 30.471 259.369 31.9216V40.1136H255.273Z" fill="#29DF67"/>
</g>
<defs>
<clipPath id="clip0_5_19">
<rect width="284" height="51" fill="white"/>
</clipPath>
</defs>
</svg>
