<svg width="64" height="64" viewBox="0 0 64 64" fill="none" xmlns="http://www.w3.org/2000/svg">
<path d="M4 32C4 35.1517 4.62078 38.2726 5.82689 41.1844C7.033 44.0962 8.80083 46.742 11.0294 48.9706C13.258 51.1992 15.9038 52.967 18.8156 54.1731C21.7274 55.3792 24.8483 56 28 56C31.1517 56 34.2726 55.3792 37.1844 54.1731C40.0962 52.967 42.742 51.1992 44.9706 48.9706C47.1992 46.742 48.967 44.0962 50.1731 41.1844C51.3792 38.2726 52 35.1517 52 32C52 25.6348 49.4714 19.5303 44.9706 15.0294C40.4697 10.5286 34.3652 8 28 8C21.6348 8 15.5303 10.5286 11.0294 15.0294C6.52856 19.5303 4 25.6348 4 32Z" stroke="#56FF7B" stroke-width="5.33333" stroke-linecap="round" stroke-linejoin="round"/>
<path d="M28 18.6666V32L36 40" stroke="#56FF7B" stroke-width="5.33333" stroke-linecap="round" stroke-linejoin="round"/>
</svg>
