<svg width="32" height="48" viewBox="0 0 32 48" fill="none" xmlns="http://www.w3.org/2000/svg">
<path d="M16 47.3334C15.4717 47.3264 14.967 47.1135 14.5934 46.7399C14.2198 46.3663 14.0069 45.8616 14 45.3334V2.66669C14 2.13625 14.2107 1.62755 14.5858 1.25247C14.9609 0.8774 15.4696 0.666687 16 0.666687C16.5304 0.666687 17.0391 0.8774 17.4142 1.25247C17.7893 1.62755 18 2.13625 18 2.66669V45.3334C17.9931 45.8616 17.7802 46.3663 17.4066 46.7399C17.033 47.1135 16.5283 47.3264 16 47.3334Z" fill="#56FF7B"/>
<path d="M20 42H2.66669C2.13625 42 1.62755 41.7893 1.25247 41.4142C0.8774 41.0391 0.666687 40.5304 0.666687 40C0.666687 39.4696 0.8774 38.9609 1.25247 38.5858C1.62755 38.2107 2.13625 38 2.66669 38H20C21.7641 38.1572 23.5197 37.6172 24.8904 36.4957C26.2612 35.3741 27.1381 33.7603 27.3334 32C27.1381 30.2397 26.2612 28.6259 24.8904 27.5043C23.5197 26.3828 21.7641 25.8428 20 26H12C10.5987 26.0903 9.19325 25.9031 7.86443 25.449C6.53561 24.9948 5.30954 24.2828 4.25656 23.3537C3.20359 22.4246 2.34443 21.2967 1.72839 20.0348C1.11235 18.7729 0.751546 17.4017 0.666687 16C0.751546 14.5983 1.11235 13.2271 1.72839 11.9652C2.34443 10.7033 3.20359 9.5754 4.25656 8.6463C5.30954 7.71721 6.53561 7.00517 7.86443 6.55105C9.19325 6.09693 10.5987 5.90966 12 6H26.6667C27.1971 6 27.7058 6.21071 28.0809 6.58578C28.456 6.96086 28.6667 7.46957 28.6667 8C28.6667 8.53043 28.456 9.03914 28.0809 9.41421C27.7058 9.78929 27.1971 10 26.6667 10H12C10.2359 9.84278 8.48038 10.3828 7.10962 11.5043C5.73885 12.6259 4.86191 14.2397 4.66669 16C4.86191 17.7603 5.73885 19.3741 7.10962 20.4957C8.48038 21.6172 10.2359 22.1572 12 22H20C21.4014 21.9097 22.8068 22.0969 24.1356 22.5511C25.4644 23.0052 26.6905 23.7172 27.7435 24.6463C28.7965 25.5754 29.6556 26.7033 30.2717 27.9652C30.8877 29.2271 31.2485 30.5983 31.3334 32C31.2485 33.4017 30.8877 34.7729 30.2717 36.0348C29.6556 37.2967 28.7965 38.4246 27.7435 39.3537C26.6905 40.2828 25.4644 40.9948 24.1356 41.449C22.8068 41.9031 21.4014 42.0903 20 42Z" fill="#56FF7B"/>
</svg>
