<svg width="64" height="64" viewBox="0 0 64 64" fill="none" xmlns="http://www.w3.org/2000/svg">
<path d="M63.9225 29.492C63.9729 29.612 64 29.748 64 29.884V30.124C64.0006 30.2575 63.9742 30.3896 63.9225 30.512C63.814 30.752 53.5026 54 33 54C12.4974 54 2.18216 30.752 2.07753 30.512C2.02532 30.3884 1.99891 30.2548 2.00003 30.12V29.884C2.00003 29.748 2.02716 29.612 2.07753 29.492C2.18603 29.252 12.4974 6 33 6C53.5026 6 63.8179 29.252 63.9225 29.492ZM58.6137 27.796C57.0601 25.1415 55.2629 22.6474 53.2469 20.348C47.4886 13.824 40.7461 10 33 10C25.25 10 18.5075 13.824 12.7532 20.348C10.1823 23.2767 7.96867 26.5196 6.16178 30.004C7.96764 33.4869 10.1799 36.7284 12.7493 39.656C18.5075 46.172 25.2578 50 33 50C40.7423 50 47.4925 46.176 53.2469 39.652C55.8175 36.7245 58.0311 33.4831 59.8382 30C59.5282 29.4 59.1059 28.628 58.6176 27.796M33 17C36.3391 17.0032 39.5406 18.3738 41.9017 20.8111C44.2628 23.2484 45.5907 26.5532 45.5938 30C45.5896 33.4465 44.2615 36.7507 41.9006 39.1877C39.5397 41.6248 36.3388 42.9958 33 43C29.6609 42.9968 26.4594 41.6262 24.0983 39.1889C21.7372 36.7516 20.4093 33.4468 20.4063 30C20.4083 26.5528 21.7358 23.2475 24.0972 20.81C26.4585 18.3724 29.6606 17.0021 33 17ZM33 21C28.195 21 24.2813 25.04 24.2813 30C24.2813 34.96 28.195 39 33 39C37.805 39 41.7188 34.96 41.7188 30C41.7188 25.04 37.805 21 33 21ZM33 27C32.2292 27 31.49 27.3161 30.945 27.8787C30.4 28.4413 30.0938 29.2044 30.0938 30C30.0938 30.7956 30.4 31.5587 30.945 32.1213C31.49 32.6839 32.2292 33 33 33C33.7708 33 34.51 32.6839 35.055 32.1213C35.6001 31.5587 35.9063 30.7956 35.9063 30C35.9063 29.2044 35.6001 28.4413 35.055 27.8787C34.51 27.3161 33.7708 27 33 27Z" fill="#56FF7B"/>
</svg>
