<svg width="123" height="66" viewBox="0 0 123 66" fill="none" xmlns="http://www.w3.org/2000/svg">
<g clip-path="url(#clip0_2_17)">
<path d="M70.8657 33.627L72.7325 35.8725L71.8025 41.325L70.8657 46.7775L69.932 41.325L68.9975 35.8725L70.8657 33.627ZM55.6872 32.964L57.5525 35.2095L56.621 40.6575L55.6872 46.11L54.7542 40.6575L53.8175 35.2095L55.6872 32.964Z" fill="#E7E5E5"/>
<path d="M57.0867 39.2775C57.0867 36.918 57.9425 38.451 62.4635 38.451C66.986 38.451 68.5452 36.9172 68.5452 39.2775C68.5452 41.6392 67.3385 48.0202 62.8145 48.0202C58.292 48.0202 57.0867 41.64 57.0867 39.2775Z" fill="#089987"/>
<path fill-rule="evenodd" clip-rule="evenodd" d="M70.079 30.015C68.6202 29.2522 67.1825 28.476 65.333 28.0065C72.1835 18.4177 70.268 5.304 67.2335 0.0164986C72.7003 6.429 79.4397 27.4395 70.079 30.015Z" fill="#0A7E71"/>
<path fill-rule="evenodd" clip-rule="evenodd" d="M79.067 10.2532C79.8605 10.6665 80.5205 12.5295 80.8303 13.7632C81.968 18.3217 80.4215 24.069 76.9873 27.4327C76.6333 25.6725 76.1263 25.0882 75.3665 22.5795C78.1813 18.8332 78.9988 14.4292 79.067 10.2532ZM55.0843 30.1125C56.54 29.3497 57.9808 28.575 59.828 28.104C52.9768 18.5167 54.8923 5.4015 57.9305 0.113998C52.4608 6.5265 45.7205 27.5377 55.0843 30.1125Z" fill="#0A7E71"/>
<path fill-rule="evenodd" clip-rule="evenodd" d="M46.0933 10.3492C45.3035 10.7617 44.6428 12.6247 44.3338 13.8585C43.193 18.417 44.7418 24.165 48.1768 27.5272C48.5278 25.7677 49.0355 25.1842 49.7945 22.6747C46.9783 18.9292 46.1615 14.5252 46.0933 10.3492Z" fill="#0A7E71"/>
<path d="M79.9505 32.9625C79.9505 38.4998 72.2772 42.9907 62.8115 42.9907C53.3427 42.9907 45.6702 38.4998 45.6702 32.9625C45.6702 27.423 53.3435 14.5283 62.8115 14.5283C72.2765 14.5283 79.9505 27.423 79.9505 32.9625Z" fill="#089987"/>
<path d="M74.8925 35.925C74.8925 39.8258 69.4865 42.9907 62.8175 42.9907C56.15 42.9907 50.7425 39.8258 50.7425 35.925C50.7425 32.0235 56.1493 22.9387 62.8175 22.9387C69.4888 22.9387 74.8925 32.0213 74.8925 35.925Z" fill="#0A7E71"/>
<path d="M70.8657 35.3925C70.8656 35.1607 70.9112 34.9313 70.9998 34.7171C71.0884 34.503 71.2183 34.3084 71.3821 34.1444C71.5459 33.9805 71.7404 33.8504 71.9545 33.7616C72.1685 33.6728 72.398 33.6271 72.6297 33.627C72.8615 33.6269 73.091 33.6725 73.3051 33.761C73.5193 33.8496 73.7139 33.9796 73.8778 34.1434C74.0418 34.3072 74.1719 34.5016 74.2606 34.7157C74.3494 34.9298 74.3951 35.1592 74.3952 35.391C74.3954 35.859 74.2097 36.308 73.8789 36.6391C73.5481 36.9702 73.0993 37.1563 72.6312 37.1565C72.1632 37.1567 71.7143 36.971 71.3832 36.6401C71.0521 36.3093 70.8659 35.8605 70.8657 35.3925ZM51.2982 35.3925C51.298 34.9245 51.4838 34.4755 51.8146 34.1444C52.1454 33.8133 52.5942 33.6272 53.0622 33.627C53.5303 33.6268 53.9792 33.8125 54.3103 34.1434C54.6414 34.4742 54.8275 34.923 54.8277 35.391C54.8279 35.859 54.6422 36.308 54.3114 36.6391C53.9806 36.9702 53.5318 37.1563 53.0637 37.1565C52.5957 37.1567 52.1468 36.971 51.8157 36.6401C51.4846 36.3093 51.2984 35.8605 51.2982 35.3925Z" fill="#25333A"/>
<path d="M71.4185 20.7225C72.2555 21.8557 72.68 23.4217 72.4692 25.0905C72.0845 28.1452 69.719 30.3705 67.1892 30.0548C65.0817 29.79 63.527 27.8182 63.3042 25.3875C66.2945 24.294 69.0642 22.7835 71.4185 20.7225ZM54.0485 20.7225C53.2107 21.8557 52.7907 23.4203 52.9977 25.089C53.3817 28.1453 55.7472 30.369 58.2777 30.0548C60.3852 29.79 61.94 27.8182 62.162 25.3875C59.1747 24.294 56.4012 22.7835 54.0477 20.7225" fill="#CB2F42"/>
<path d="M73.0002 18.3353H71.4755C71.3975 18.3353 71.3405 18.3653 71.2715 18.3773C71.1935 18.3878 71.1193 18.3923 71.0398 18.4238C70.9108 18.4748 70.6648 18.6593 70.6438 18.6788C66.9605 22.269 62.1365 23.0873 57.5405 20.7233C55.07 19.4535 55.2755 18.3353 52.6295 18.3353C51.551 18.3353 51.149 19.5885 51.8007 20.3385C57.7625 27.2145 67.871 27.2145 73.8327 20.3385C74.4837 19.5885 74.081 18.3353 73.0002 18.3353Z" fill="#036A5C"/>
</g>
<path d="M4.764 63.048C3.94 63.048 3.216 62.868 2.592 62.508C1.968 62.14 1.48 61.636 1.128 60.996C0.784 60.356 0.612 59.624 0.612 58.8C0.612 57.968 0.784 57.232 1.128 56.592C1.48 55.952 1.968 55.452 2.592 55.092C3.216 54.732 3.94 54.552 4.764 54.552C5.588 54.552 6.312 54.732 6.936 55.092C7.56 55.452 8.044 55.952 8.388 56.592C8.74 57.232 8.916 57.968 8.916 58.8C8.916 59.624 8.74 60.356 8.388 60.996C8.044 61.636 7.56 62.14 6.936 62.508C6.312 62.868 5.588 63.048 4.764 63.048ZM4.764 62.604C5.516 62.604 6.168 62.444 6.72 62.124C7.272 61.804 7.696 61.356 7.992 60.78C8.296 60.204 8.448 59.544 8.448 58.8C8.448 58.04 8.296 57.376 7.992 56.808C7.696 56.232 7.272 55.784 6.72 55.464C6.168 55.144 5.516 54.984 4.764 54.984C4.012 54.984 3.36 55.144 2.808 55.464C2.256 55.784 1.828 56.232 1.524 56.808C1.228 57.376 1.08 58.04 1.08 58.8C1.08 59.544 1.228 60.204 1.524 60.78C1.828 61.356 2.256 61.804 2.808 62.124C3.36 62.444 4.012 62.604 4.764 62.604ZM4.764 61.572C4.284 61.572 3.848 61.464 3.456 61.248C3.064 61.032 2.748 60.716 2.508 60.3C2.276 59.876 2.16 59.372 2.16 58.788C2.16 58.204 2.276 57.704 2.508 57.288C2.748 56.872 3.064 56.556 3.456 56.34C3.848 56.116 4.284 56.004 4.764 56.004C5.356 56.004 5.876 56.164 6.324 56.484C6.772 56.796 7.072 57.248 7.224 57.84H6.3C6.188 57.48 5.992 57.208 5.712 57.024C5.432 56.832 5.112 56.736 4.752 56.736C4.288 56.736 3.888 56.908 3.552 57.252C3.216 57.596 3.048 58.112 3.048 58.8C3.048 59.48 3.216 59.992 3.552 60.336C3.888 60.68 4.288 60.852 4.752 60.852C5.536 60.852 6.052 60.488 6.3 59.76H7.224C7.072 60.32 6.772 60.764 6.324 61.092C5.876 61.412 5.356 61.572 4.764 61.572ZM17.2751 63.144C16.4511 63.144 15.7391 62.964 15.1391 62.604C14.5471 62.236 14.0871 61.728 13.7591 61.08C13.4311 60.424 13.2671 59.664 13.2671 58.8C13.2671 57.944 13.4311 57.192 13.7591 56.544C14.0871 55.888 14.5471 55.376 15.1391 55.008C15.7391 54.64 16.4511 54.456 17.2751 54.456C18.2351 54.456 19.0151 54.688 19.6151 55.152C20.2231 55.608 20.6111 56.248 20.7791 57.072H19.6631C19.5351 56.552 19.2711 56.136 18.8711 55.824C18.4791 55.504 17.9471 55.344 17.2751 55.344C16.6751 55.344 16.1511 55.484 15.7031 55.764C15.2551 56.036 14.9071 56.432 14.6591 56.952C14.4191 57.464 14.2991 58.08 14.2991 58.8C14.2991 59.52 14.4191 60.14 14.6591 60.66C14.9071 61.172 15.2551 61.568 15.7031 61.848C16.1511 62.12 16.6751 62.256 17.2751 62.256C17.9471 62.256 18.4791 62.104 18.8711 61.8C19.2711 61.488 19.5351 61.076 19.6631 60.564H20.7791C20.6111 61.372 20.2231 62.004 19.6151 62.46C19.0151 62.916 18.2351 63.144 17.2751 63.144ZM22.1678 63V57.048H23.0798L23.1638 58.188C23.3478 57.796 23.6278 57.484 24.0038 57.252C24.3798 57.02 24.8438 56.904 25.3958 56.904V57.96H25.1198C24.7678 57.96 24.4438 58.024 24.1478 58.152C23.8518 58.272 23.6158 58.48 23.4398 58.776C23.2638 59.072 23.1758 59.48 23.1758 60V63H22.1678ZM27.1392 55.728C26.9392 55.728 26.7712 55.664 26.6352 55.536C26.5072 55.4 26.4432 55.232 26.4432 55.032C26.4432 54.84 26.5072 54.68 26.6352 54.552C26.7712 54.424 26.9392 54.36 27.1392 54.36C27.3312 54.36 27.4952 54.424 27.6312 54.552C27.7672 54.68 27.8352 54.84 27.8352 55.032C27.8352 55.232 27.7672 55.4 27.6312 55.536C27.4952 55.664 27.3312 55.728 27.1392 55.728ZM26.6352 63V57.048H27.6432V63H26.6352ZM29.3983 65.64V57.048H30.3103L30.4063 58.032C30.5983 57.744 30.8703 57.484 31.2223 57.252C31.5823 57.02 32.0383 56.904 32.5903 56.904C33.1823 56.904 33.6983 57.04 34.1383 57.312C34.5783 57.584 34.9183 57.956 35.1583 58.428C35.4063 58.9 35.5303 59.436 35.5303 60.036C35.5303 60.636 35.4063 61.172 35.1583 61.644C34.9183 62.108 34.5743 62.476 34.1263 62.748C33.6863 63.012 33.1703 63.144 32.5783 63.144C32.0903 63.144 31.6543 63.044 31.2703 62.844C30.8943 62.644 30.6063 62.364 30.4063 62.004V65.64H29.3983ZM32.4703 62.268C32.8703 62.268 33.2223 62.176 33.5263 61.992C33.8303 61.8 34.0703 61.536 34.2463 61.2C34.4223 60.864 34.5103 60.472 34.5103 60.024C34.5103 59.576 34.4223 59.184 34.2463 58.848C34.0703 58.512 33.8303 58.252 33.5263 58.068C33.2223 57.876 32.8703 57.78 32.4703 57.78C32.0703 57.78 31.7183 57.876 31.4143 58.068C31.1103 58.252 30.8703 58.512 30.6943 58.848C30.5183 59.184 30.4303 59.576 30.4303 60.024C30.4303 60.472 30.5183 60.864 30.6943 61.2C30.8703 61.536 31.1103 61.8 31.4143 61.992C31.7183 62.176 32.0703 62.268 32.4703 62.268ZM39.0511 63C38.5071 63 38.0791 62.868 37.7671 62.604C37.4551 62.34 37.2991 61.864 37.2991 61.176V57.9H36.2671V57.048H37.2991L37.4311 55.62H38.3071V57.048H40.0591V57.9H38.3071V61.176C38.3071 61.552 38.3831 61.808 38.5351 61.944C38.6871 62.072 38.9551 62.136 39.3391 62.136H39.9631V63H39.0511ZM43.8877 63.144C43.3277 63.144 42.8237 63.016 42.3757 62.76C41.9277 62.504 41.5717 62.144 41.3077 61.68C41.0517 61.208 40.9237 60.656 40.9237 60.024C40.9237 59.392 41.0557 58.844 41.3197 58.38C41.5837 57.908 41.9397 57.544 42.3877 57.288C42.8437 57.032 43.3517 56.904 43.9117 56.904C44.4717 56.904 44.9757 57.032 45.4237 57.288C45.8717 57.544 46.2237 57.908 46.4797 58.38C46.7437 58.844 46.8757 59.392 46.8757 60.024C46.8757 60.656 46.7437 61.208 46.4797 61.68C46.2157 62.144 45.8557 62.504 45.3997 62.76C44.9517 63.016 44.4477 63.144 43.8877 63.144ZM43.8877 62.28C44.2317 62.28 44.5517 62.196 44.8477 62.028C45.1437 61.86 45.3837 61.608 45.5677 61.272C45.7517 60.936 45.8437 60.52 45.8437 60.024C45.8437 59.528 45.7517 59.112 45.5677 58.776C45.3917 58.44 45.1557 58.188 44.8597 58.02C44.5637 57.852 44.2477 57.768 43.9117 57.768C43.5677 57.768 43.2477 57.852 42.9517 58.02C42.6557 58.188 42.4157 58.44 42.2317 58.776C42.0477 59.112 41.9557 59.528 41.9557 60.024C41.9557 60.52 42.0477 60.936 42.2317 61.272C42.4157 61.608 42.6517 61.86 42.9397 62.028C43.2357 62.196 43.5517 62.28 43.8877 62.28ZM50.9772 63.144C50.3852 63.144 49.8652 63.008 49.4172 62.736C48.9772 62.464 48.6332 62.092 48.3852 61.62C48.1452 61.148 48.0252 60.612 48.0252 60.012C48.0252 59.412 48.1492 58.88 48.3972 58.416C48.6452 57.944 48.9892 57.576 49.4292 57.312C49.8692 57.04 50.3892 56.904 50.9892 56.904C51.4772 56.904 51.9092 57.004 52.2852 57.204C52.6612 57.404 52.9532 57.684 53.1612 58.044V54.36H54.1692V63H53.2572L53.1612 62.016C52.9692 62.304 52.6932 62.564 52.3332 62.796C51.9732 63.028 51.5212 63.144 50.9772 63.144ZM51.0852 62.268C51.4852 62.268 51.8372 62.176 52.1412 61.992C52.4532 61.8 52.6932 61.536 52.8612 61.2C53.0372 60.864 53.1252 60.472 53.1252 60.024C53.1252 59.576 53.0372 59.184 52.8612 58.848C52.6932 58.512 52.4532 58.252 52.1412 58.068C51.8372 57.876 51.4852 57.78 51.0852 57.78C50.6932 57.78 50.3412 57.876 50.0292 58.068C49.7252 58.252 49.4852 58.512 49.3092 58.848C49.1412 59.184 49.0572 59.576 49.0572 60.024C49.0572 60.472 49.1412 60.864 49.3092 61.2C49.4852 61.536 49.7252 61.8 50.0292 61.992C50.3412 62.176 50.6932 62.268 51.0852 62.268ZM55.8124 63V57.048H56.7244L56.8084 58.188C56.9924 57.796 57.2724 57.484 57.6484 57.252C58.0244 57.02 58.4884 56.904 59.0404 56.904V57.96H58.7644C58.4124 57.96 58.0884 58.024 57.7924 58.152C57.4964 58.272 57.2604 58.48 57.0844 58.776C56.9084 59.072 56.8204 59.48 56.8204 60V63H55.8124ZM62.1518 63.144C61.6558 63.144 61.2438 63.06 60.9158 62.892C60.5878 62.724 60.3438 62.5 60.1838 62.22C60.0238 61.94 59.9438 61.636 59.9438 61.308C59.9438 60.7 60.1758 60.232 60.6398 59.904C61.1038 59.576 61.7358 59.412 62.5358 59.412H64.1438V59.34C64.1438 58.82 64.0078 58.428 63.7358 58.164C63.4638 57.892 63.0998 57.756 62.6438 57.756C62.2518 57.756 61.9118 57.856 61.6238 58.056C61.3438 58.248 61.1678 58.532 61.0958 58.908H60.0638C60.1038 58.476 60.2478 58.112 60.4958 57.816C60.7518 57.52 61.0678 57.296 61.4438 57.144C61.8198 56.984 62.2198 56.904 62.6438 56.904C63.4758 56.904 64.0998 57.128 64.5158 57.576C64.9398 58.016 65.1518 58.604 65.1518 59.34V63H64.2518L64.1918 61.932C64.0238 62.268 63.7758 62.556 63.4478 62.796C63.1278 63.028 62.6958 63.144 62.1518 63.144ZM62.3078 62.292C62.6918 62.292 63.0198 62.192 63.2918 61.992C63.5718 61.792 63.7838 61.532 63.9278 61.212C64.0718 60.892 64.1438 60.556 64.1438 60.204V60.192H62.6198C62.0278 60.192 61.6078 60.296 61.3598 60.504C61.1198 60.704 60.9998 60.956 60.9998 61.26C60.9998 61.572 61.1118 61.824 61.3358 62.016C61.5678 62.2 61.8918 62.292 62.3078 62.292ZM69.0159 61.128C68.6799 61.128 68.3719 61.084 68.0919 60.996L67.4919 61.56C67.5799 61.624 67.6879 61.68 67.8159 61.728C67.9519 61.768 68.1439 61.808 68.3919 61.848C68.6399 61.88 68.9879 61.916 69.4359 61.956C70.2359 62.012 70.8079 62.196 71.1519 62.508C71.4959 62.82 71.6679 63.228 71.6679 63.732C71.6679 64.076 71.5719 64.404 71.3799 64.716C71.1959 65.028 70.9079 65.284 70.5159 65.484C70.1319 65.684 69.6359 65.784 69.0279 65.784C68.4919 65.784 68.0159 65.712 67.5999 65.568C67.1839 65.432 66.8599 65.22 66.6279 64.932C66.3959 64.652 66.2799 64.296 66.2799 63.864C66.2799 63.64 66.3399 63.396 66.4599 63.132C66.5799 62.876 66.8039 62.632 67.1319 62.4C66.9559 62.328 66.8039 62.252 66.6759 62.172C66.5559 62.084 66.4439 61.988 66.3399 61.884V61.608L67.3599 60.6C66.8879 60.2 66.6519 59.672 66.6519 59.016C66.6519 58.624 66.7439 58.268 66.9279 57.948C67.1119 57.628 67.3799 57.376 67.7319 57.192C68.0839 57 68.5119 56.904 69.0159 56.904C69.3599 56.904 69.6719 56.952 69.9519 57.048H72.1479V57.804L71.0319 57.852C71.2639 58.188 71.3799 58.576 71.3799 59.016C71.3799 59.408 71.2839 59.764 71.0919 60.084C70.9079 60.404 70.6399 60.66 70.2879 60.852C69.9439 61.036 69.5199 61.128 69.0159 61.128ZM69.0159 60.3C69.4399 60.3 69.7759 60.192 70.0239 59.976C70.2799 59.752 70.4079 59.432 70.4079 59.016C70.4079 58.608 70.2799 58.296 70.0239 58.08C69.7759 57.856 69.4399 57.744 69.0159 57.744C68.5839 57.744 68.2399 57.856 67.9839 58.08C67.7359 58.296 67.6119 58.608 67.6119 59.016C67.6119 59.432 67.7359 59.752 67.9839 59.976C68.2399 60.192 68.5839 60.3 69.0159 60.3ZM67.2639 63.768C67.2639 64.168 67.4319 64.464 67.7679 64.656C68.1039 64.856 68.5239 64.956 69.0279 64.956C69.5239 64.956 69.9199 64.848 70.2159 64.632C70.5199 64.416 70.6719 64.128 70.6719 63.768C70.6719 63.512 70.5679 63.288 70.3599 63.096C70.1519 62.912 69.7679 62.804 69.2079 62.772C68.7679 62.74 68.3879 62.7 68.0679 62.652C67.7399 62.828 67.5239 63.016 67.4199 63.216C67.3159 63.424 67.2639 63.608 67.2639 63.768ZM75.7627 63.144C75.2027 63.144 74.6987 63.016 74.2507 62.76C73.8027 62.504 73.4467 62.144 73.1827 61.68C72.9267 61.208 72.7987 60.656 72.7987 60.024C72.7987 59.392 72.9307 58.844 73.1947 58.38C73.4587 57.908 73.8147 57.544 74.2627 57.288C74.7187 57.032 75.2267 56.904 75.7867 56.904C76.3467 56.904 76.8507 57.032 77.2987 57.288C77.7467 57.544 78.0987 57.908 78.3547 58.38C78.6187 58.844 78.7507 59.392 78.7507 60.024C78.7507 60.656 78.6187 61.208 78.3547 61.68C78.0907 62.144 77.7307 62.504 77.2747 62.76C76.8267 63.016 76.3227 63.144 75.7627 63.144ZM75.7627 62.28C76.1067 62.28 76.4267 62.196 76.7227 62.028C77.0187 61.86 77.2587 61.608 77.4427 61.272C77.6267 60.936 77.7187 60.52 77.7187 60.024C77.7187 59.528 77.6267 59.112 77.4427 58.776C77.2667 58.44 77.0307 58.188 76.7347 58.02C76.4387 57.852 76.1227 57.768 75.7867 57.768C75.4427 57.768 75.1227 57.852 74.8267 58.02C74.5307 58.188 74.2907 58.44 74.1067 58.776C73.9227 59.112 73.8307 59.528 73.8307 60.024C73.8307 60.52 73.9227 60.936 74.1067 61.272C74.2907 61.608 74.5267 61.86 74.8147 62.028C75.1107 62.196 75.4267 62.28 75.7627 62.28ZM80.1522 63V57.048H81.0642L81.1242 58.116C81.3162 57.74 81.5922 57.444 81.9522 57.228C82.3122 57.012 82.7202 56.904 83.1762 56.904C83.8802 56.904 84.4402 57.12 84.8562 57.552C85.2802 57.976 85.4922 58.632 85.4922 59.52V63H84.4842V59.628C84.4842 58.388 83.9722 57.768 82.9482 57.768C82.4362 57.768 82.0082 57.956 81.6642 58.332C81.3282 58.7 81.1602 59.228 81.1602 59.916V63H80.1522ZM90.1232 63V62.292C90.6912 61.844 91.2272 61.392 91.7312 60.936C92.2432 60.472 92.6952 60.016 93.0872 59.568C93.4872 59.12 93.7992 58.68 94.0232 58.248C94.2552 57.816 94.3712 57.4 94.3712 57C94.3712 56.704 94.3192 56.428 94.2152 56.172C94.1192 55.916 93.9592 55.712 93.7352 55.56C93.5112 55.4 93.2072 55.32 92.8232 55.32C92.4552 55.32 92.1472 55.404 91.8992 55.572C91.6512 55.732 91.4632 55.948 91.3352 56.22C91.2152 56.492 91.1552 56.784 91.1552 57.096H90.1832C90.1832 56.544 90.2992 56.072 90.5312 55.68C90.7632 55.28 91.0792 54.976 91.4792 54.768C91.8792 54.56 92.3312 54.456 92.8352 54.456C93.5792 54.456 94.1872 54.668 94.6592 55.092C95.1392 55.508 95.3792 56.132 95.3792 56.964C95.3792 57.46 95.2552 57.952 95.0072 58.44C94.7592 58.92 94.4432 59.388 94.0592 59.844C93.6752 60.292 93.2632 60.712 92.8232 61.104C92.3912 61.496 91.9872 61.848 91.6112 62.16H95.6672V63H90.1232ZM100.281 63.144C99.5372 63.144 98.8932 62.964 98.3492 62.604C97.8132 62.236 97.4012 61.728 97.1132 61.08C96.8252 60.424 96.6812 59.664 96.6812 58.8C96.6812 57.936 96.8252 57.18 97.1132 56.532C97.4012 55.876 97.8132 55.368 98.3492 55.008C98.8932 54.64 99.5372 54.456 100.281 54.456C101.025 54.456 101.665 54.64 102.201 55.008C102.737 55.368 103.149 55.876 103.437 56.532C103.725 57.18 103.869 57.936 103.869 58.8C103.869 59.664 103.725 60.424 103.437 61.08C103.149 61.728 102.737 62.236 102.201 62.604C101.665 62.964 101.025 63.144 100.281 63.144ZM100.281 62.256C100.769 62.256 101.205 62.12 101.589 61.848C101.981 61.568 102.285 61.172 102.501 60.66C102.725 60.14 102.837 59.52 102.837 58.8C102.837 58.08 102.725 57.464 102.501 56.952C102.285 56.44 101.981 56.048 101.589 55.776C101.205 55.496 100.769 55.356 100.281 55.356C99.7852 55.356 99.3452 55.496 98.9612 55.776C98.5772 56.048 98.2732 56.44 98.0492 56.952C97.8252 57.464 97.7132 58.08 97.7132 58.8C97.7132 59.52 97.8252 60.14 98.0492 60.66C98.2732 61.172 98.5772 61.568 98.9612 61.848C99.3452 62.12 99.7852 62.256 100.281 62.256ZM105.076 63V62.292C105.644 61.844 106.18 61.392 106.684 60.936C107.196 60.472 107.648 60.016 108.04 59.568C108.44 59.12 108.752 58.68 108.976 58.248C109.208 57.816 109.324 57.4 109.324 57C109.324 56.704 109.272 56.428 109.168 56.172C109.072 55.916 108.912 55.712 108.688 55.56C108.464 55.4 108.16 55.32 107.776 55.32C107.408 55.32 107.1 55.404 106.852 55.572C106.604 55.732 106.416 55.948 106.288 56.22C106.168 56.492 106.108 56.784 106.108 57.096H105.136C105.136 56.544 105.252 56.072 105.484 55.68C105.716 55.28 106.032 54.976 106.432 54.768C106.832 54.56 107.284 54.456 107.788 54.456C108.532 54.456 109.14 54.668 109.612 55.092C110.092 55.508 110.332 56.132 110.332 56.964C110.332 57.46 110.208 57.952 109.96 58.44C109.712 58.92 109.396 59.388 109.012 59.844C108.628 60.292 108.216 60.712 107.776 61.104C107.344 61.496 106.94 61.848 106.564 62.16H110.62V63H105.076ZM115.68 63V61.2H111.42V60.42L115.5 54.6H116.676V60.312H117.924V61.2H116.676V63H115.68ZM112.536 60.312H115.728V55.716L112.536 60.312Z" fill="white"/>
<defs>
<clipPath id="clip0_2_17">
<rect width="48" height="48" fill="white" transform="translate(38)"/>
</clipPath>
</defs>
</svg>
